G04 DipTrace 3.1.0.1*
G04 SerialNixieDriver.Top.gbr*
%MOIN*%
G04 #@! TF.FileFunction,Copper,L1,Top*
G04 #@! TF.Part,Single*
G04 #@! TA.AperFunction,Conductor*
%ADD14C,0.011811*%
%ADD15C,0.019685*%
%ADD17R,0.031496X0.031496*%
G04 #@! TA.AperFunction,ComponentPad*
%ADD18O,0.07X0.06*%
%ADD21C,0.062992*%
%ADD22C,0.19685*%
%ADD27R,0.047244X0.062992*%
%ADD28R,0.023622X0.07874*%
G04 #@! TA.AperFunction,ViaPad*
%ADD29C,0.031496*%
%FSLAX26Y26*%
G04*
G70*
G90*
G75*
G01*
G04 Top*
%LPD*%
X997559Y586929D2*
D14*
Y651102D1*
X1047559Y701102D1*
X1193228D1*
X1224724Y732598D1*
X1366457Y1220787D2*
X1378268Y1208976D1*
X1220787Y903465D2*
X1169606Y954646D1*
Y1116063D1*
X1275906Y1222362D1*
X1364882D1*
X1378268Y1208976D1*
X1047559Y799528D2*
Y917638D1*
X984567Y980630D1*
X850709D1*
X834961Y996378D1*
X997559Y799528D2*
Y869213D1*
X996378Y870394D1*
X1043622Y1082992D2*
X945197D1*
X921575Y1106614D1*
X823150D1*
X791654Y1138110D1*
X947559Y799528D2*
Y872756D1*
X992441Y917638D1*
X1023937Y1122362D2*
X984567D1*
X878268Y1228661D1*
X819213D1*
X791654Y1256220D1*
Y1315276D1*
X897559Y799528D2*
Y881811D1*
X964882Y949134D1*
X1008189Y1157795D2*
X921575Y1244409D1*
Y1354646D1*
X870394Y1405827D1*
X807402D1*
X791654Y1421575D1*
Y1492441D1*
X847559Y799528D2*
Y862520D1*
X846772D1*
X1082992Y1063307D2*
Y1126299D1*
X941260Y1268031D1*
Y1563307D1*
X870394Y1634173D1*
Y1689291D1*
X901890Y1720787D1*
Y1764094D1*
X797559Y799528D2*
Y860551D1*
X795591Y862520D1*
X1092835Y911732D2*
Y935354D1*
X1130236Y972756D1*
Y1075118D1*
X1106614Y1098740D1*
Y1134173D1*
X960945Y1279843D1*
Y1564882D1*
X1023937Y1627874D1*
Y1720787D1*
X1106614Y1803465D1*
Y1846772D1*
X747559Y799528D2*
Y760945D1*
X783780Y724724D1*
X1173543D1*
X1181417Y732598D1*
X1189291Y862520D2*
Y882205D1*
X1149921Y921575D1*
Y1232598D1*
X1208976Y1291654D1*
Y1559370D1*
X1315276Y1665669D1*
Y1764094D1*
X1407008Y586929D2*
Y731417D1*
X1405827Y732598D1*
X1260157Y866457D2*
Y905827D1*
X1189291Y976693D1*
Y1092441D1*
X1205039Y1108189D1*
Y1202677D2*
Y1244409D1*
X1228661Y1268031D1*
Y1362520D1*
X1378268Y1512126D1*
Y1555433D1*
X1319213Y941260D2*
X1366457D1*
X1457008Y850709D1*
Y799528D1*
X1287717Y1256220D2*
X1295591D1*
X1378268Y1338898D1*
Y1382205D1*
X1437323Y1208976D2*
Y1236535D1*
X1449134Y1248346D1*
X775906Y996378D2*
Y960945D1*
X771969Y957008D1*
X732598Y1138110D2*
Y1114488D1*
X716850Y1098740D1*
X732598Y1315276D2*
Y1291654D1*
X716850Y1275906D1*
X732598Y1492441D2*
Y1468819D1*
X716850Y1453071D1*
X842835Y1764094D2*
Y1803465D1*
X838898Y1807402D1*
X1047559Y1846772D2*
Y1844409D1*
X1012126D1*
X1256220Y1764094D2*
Y1803465D1*
X1252283Y1807402D1*
X1437323Y1555433D2*
Y1582992D1*
X1449134Y1594803D1*
X1437323Y1382205D2*
Y1409764D1*
X1449134Y1421575D1*
X472756Y1281417D2*
X484567D1*
X665669Y1100315D1*
Y756220D1*
X689291Y732598D1*
X724724D1*
X728661Y728661D1*
X724724Y732598D2*
D3*
X949134Y673543D2*
Y588504D1*
X947559Y586929D1*
X697559Y799528D2*
D15*
X697165Y862520D1*
D14*
Y799921D1*
X697559Y799528D1*
X1107008D2*
D15*
X1106614Y862520D1*
X945197Y486142D2*
D14*
X984567D1*
X1397953D2*
X1358583D1*
X1315276Y1031811D2*
X1240472D1*
X472756Y981417D2*
X536535D1*
X590866Y927087D1*
Y679055D1*
X642047Y627874D1*
Y560945D1*
X768031Y434961D1*
X799528D1*
Y584961D1*
X797559Y586929D1*
X1693228Y981417D2*
X1692441D1*
X1626299Y915276D1*
Y679055D1*
X1527874Y580630D1*
Y476693D1*
X1486142Y434961D1*
X1207008D1*
X799528D1*
X1676299Y981417D2*
X1693228D1*
X1207008Y586929D2*
Y434961D1*
X472756Y1581417D2*
D15*
X516850D1*
X866457Y1931024D1*
X1291654D1*
X1642047Y1580630D1*
X1692441D1*
X1693228Y1581417D1*
X472756D2*
Y1481417D1*
X1693228Y1581417D2*
Y1481417D1*
D14*
X1621575D1*
X1551496Y1411339D1*
Y1214488D1*
X1425512Y1088504D1*
Y1031811D1*
X1107008Y586929D2*
Y644016D1*
X1142047Y679055D1*
X1248346D1*
X1271969Y702677D1*
X1319213D1*
X1323150Y698740D1*
X1496378Y777480D2*
Y1084567D1*
X1693228Y1281417D1*
X472756Y1181417D2*
X521575D1*
X642047Y1060945D1*
Y752283D1*
X657795Y736535D1*
X697165Y697165D1*
X1307402Y661732D2*
Y587323D1*
X1307008Y586929D1*
X1445197Y671181D2*
X1527874Y753858D1*
Y1016063D1*
X1693228Y1181417D1*
X897953Y673543D2*
Y587323D1*
X897559Y586929D1*
X697559D2*
Y638504D1*
X764094Y705039D1*
X972756D1*
X984567Y693228D1*
X1358583Y720787D2*
Y588504D1*
X1357008Y586929D1*
X472756Y1081417D2*
X527087D1*
X618425Y990079D1*
Y716850D1*
X669606Y665669D1*
X850709Y657795D2*
Y590079D1*
X847559Y586929D1*
X1256220Y649921D2*
Y587717D1*
X1257008Y586929D1*
X1500315Y682992D2*
X1551496Y734173D1*
Y939685D1*
X1693228Y1081417D1*
X472756Y881417D2*
D15*
X538110D1*
X559370Y860157D1*
Y651496D1*
X1047559Y525512D2*
D14*
Y586929D1*
Y525512D2*
D15*
Y490079D1*
D14*
X1043622Y486142D1*
D15*
X1169606D1*
X1457008D2*
Y525512D1*
Y586929D1*
X747559D2*
D14*
Y526299D1*
X748346Y525512D1*
X1173543Y482205D2*
X1169606Y486142D1*
Y521575D1*
X1157795Y533386D1*
Y586142D1*
X1157008Y586929D1*
X1457008D2*
D15*
X1467244D1*
X1590866Y710551D1*
Y875906D1*
D29*
X1224724Y732598D3*
X949134Y673543D3*
X1012126Y1844409D3*
X838898Y1807402D3*
X1252283D3*
X1449134Y1594803D3*
X716850Y1453071D3*
X1449134Y1421575D3*
X716850Y1275906D3*
X1287717Y1256220D3*
X1449134Y1248346D3*
X1205039Y1202677D3*
X1008189Y1157795D3*
X1205039Y1108189D3*
X1023937Y1122362D3*
X716850Y1098740D3*
X1043622Y1082992D3*
X1082992Y1063307D3*
X771969Y957008D3*
X964882Y949134D3*
X1319213Y941260D3*
X992441Y917638D3*
X1220787Y903465D3*
X1092835Y911732D3*
X996378Y870394D3*
X1260157Y866457D3*
X697165Y862520D3*
X795591D3*
X846772D3*
X1106614D3*
X1189291D3*
X1496378Y777480D3*
X1181417Y732598D3*
X1405827D3*
X728661Y728661D3*
X1358583Y720787D3*
X1323150Y698740D3*
X697165Y697165D3*
X984567Y693228D3*
X1500315Y682992D3*
X897953Y673543D3*
X1445197Y671181D3*
X669606Y665669D3*
X1307402Y661732D3*
X850709Y657795D3*
X559370Y651496D3*
X1256220Y649921D3*
X1047559Y525512D3*
X1457008D3*
X945197Y486142D3*
X1169606D3*
X1358583D3*
X748346Y525512D3*
X1590866Y875906D3*
X520000Y1919213D3*
Y1765669D3*
X455039Y1805039D3*
Y1883780D3*
X584961Y1805039D3*
Y1883780D3*
X1645984Y1919213D3*
Y1765669D3*
X1581024Y1805039D3*
Y1883780D3*
X1710945Y1805039D3*
Y1883780D3*
X520000Y596378D3*
Y442835D3*
X455039Y482205D3*
Y560945D3*
X584961Y482205D3*
Y560945D3*
X1645984Y596378D3*
Y442835D3*
X1581024Y482205D3*
Y560945D3*
X1710945Y482205D3*
Y560945D3*
D17*
X984567Y486142D3*
X1043622D3*
X1397953D3*
X1457008D3*
D18*
X472756Y1481417D3*
Y1581417D3*
X1693228Y1481417D3*
Y1581417D3*
X472756Y1181417D3*
Y981417D3*
Y1081417D3*
Y1281417D3*
X1693228Y1181417D3*
Y981417D3*
Y1081417D3*
Y1281417D3*
X472756Y781417D3*
Y881417D3*
X1693228Y781417D3*
Y881417D3*
D21*
X1082992Y1701102D3*
X1309370Y1346772D3*
Y1523937D3*
X1082992Y992441D3*
X1309370Y1169606D3*
X1240472Y1031811D3*
Y1661732D3*
X925512D3*
X856614Y1523937D3*
Y1346772D3*
Y1169606D3*
X925512Y1031811D3*
D22*
X520000Y1842835D3*
X1645984D3*
X520000Y520000D3*
X1645984D3*
D17*
X1106614Y1846772D3*
X1047559D3*
X901890Y1764094D3*
X842835D3*
X1315276D3*
X1256220D3*
X1378268Y1555433D3*
X1437323D3*
X791654Y1492441D3*
X732598D3*
X1378268Y1382205D3*
X1437323D3*
X791654Y1315276D3*
X732598D3*
X1378268Y1208976D3*
X1437323D3*
X791654Y1138110D3*
X732598D3*
D27*
X1315276Y1031811D3*
X1425512D3*
D17*
X834961Y996378D3*
X775906D3*
D28*
X1047559Y799528D3*
X997559D3*
X947559D3*
X897559D3*
X847559D3*
X797559D3*
X747559D3*
X697559D3*
Y586929D3*
X747559D3*
X797559D3*
X847559D3*
X897559D3*
X947559D3*
X997559D3*
X1047559D3*
X1457008Y799528D3*
X1407008D3*
X1357008D3*
X1307008D3*
X1257008D3*
X1207008D3*
X1157008D3*
X1107008D3*
Y586929D3*
X1157008D3*
X1207008D3*
X1257008D3*
X1307008D3*
X1357008D3*
X1407008D3*
X1457008D3*
M02*
