M48
INCH
T01C0.0157
T02C0.0315
T03C0.034
T04C0.1102
T05C0.1969
%
T01
X+010121Y+018444
X+008389Y+018074
X+005850Y+018050
X+005200Y+017657
X+004550Y+018050
X+004550Y+018838
X+005200Y+019192
X+005850Y+018838
X+007169Y+014531
X+007169Y+012759
X+007169Y+010987
X+007720Y+009570
X+007956Y+008625
X+008468Y+008625
X+009649Y+009491
X+009924Y+009176
X+009964Y+008704
X+010928Y+009117
X+011066Y+008625
X+011893Y+008625
X+012208Y+009035
X+012602Y+008665
X+013192Y+009413
X+012050Y+011082
X+012050Y+012027
X+012877Y+012562
X+014491Y+012483
X+014491Y+014216
X+014491Y+015948
X+015810Y+018050
X+016460Y+017657
X+017109Y+018050
X+017109Y+018838
X+016460Y+019192
X+015810Y+018838
X+012523Y+018074
X+010082Y+011578
X+010239Y+011224
X+010436Y+010830
X+010830Y+010633
X+011814Y+007326
X+012247Y+007326
X+012562Y+006499
X+013074Y+006617
X+013231Y+006987
X+013586Y+007208
X+014058Y+007326
X+014452Y+006712
X+015003Y+006830
X+014964Y+007775
X+015909Y+008759
X+016460Y+005964
X+015810Y+005609
X+015810Y+004822
X+016460Y+004428
X+017109Y+004822
X+017109Y+005609
X+014570Y+005255
X+013586Y+004861
X+011696Y+004861
X+010476Y+005255
X+009452Y+004861
X+009491Y+006735
X+009846Y+006932
X+008980Y+006735
X+008507Y+006578
X+007287Y+007287
X+006972Y+006972
X+006696Y+006657
X+005594Y+006515
X+005200Y+005964
X+005850Y+005609
X+005850Y+004822
X+005200Y+004428
X+004550Y+004822
X+004550Y+005609
X+007483Y+005255
X+006972Y+008625
T02
X+010830Y+017011
X+012405Y+016617
X+013094Y+015239
X+013094Y+013468
X+013094Y+011696
X+012405Y+010318
X+010830Y+009924
X+009255Y+010318
X+008566Y+011696
X+008566Y+013468
X+008566Y+015239
X+009255Y+016617
T03
X+004728Y+014814
X+004728Y+015814
X+004728Y+012814
X+004728Y+011814
X+004728Y+010814
X+004728Y+009814
X+004728Y+008814
X+004728Y+007814
X+016932Y+007814
X+016932Y+008814
X+016932Y+009814
X+016932Y+010814
X+016932Y+011814
X+016932Y+012814
X+016932Y+014814
X+016932Y+015814
T04
X+005200Y+018428
X+016460Y+018428
X+016460Y+005200
X+005200Y+005200
T05
X+010830Y+013468
T00
M30
