G04 DipTrace 3.1.0.1*
G04 SerialNixieDriver.Bottom.gbr*
%MOIN*%
G04 #@! TF.FileFunction,Copper,L2,Bot*
G04 #@! TF.Part,Single*
G04 #@! TA.AperFunction,Conductor*
%ADD14C,0.011811*%
%ADD15C,0.019685*%
G04 #@! TA.AperFunction,CopperBalancing*
%ADD16C,0.003937*%
G04 #@! TA.AperFunction,ComponentPad*
%ADD18O,0.07X0.06*%
%ADD21C,0.062992*%
%ADD22C,0.19685*%
%ADD24R,0.025591X0.041339*%
%ADD26R,0.041339X0.025591*%
G04 #@! TA.AperFunction,ViaPad*
%ADD29C,0.031496*%
%FSLAX26Y26*%
G04*
G70*
G90*
G75*
G01*
G04 Bottom*
%LPD*%
X1224724Y732598D2*
D14*
Y899528D1*
X1220787Y903465D1*
X996378Y870394D2*
Y882205D1*
X1023937Y909764D1*
Y933386D1*
X1016063Y941260D1*
Y1055433D1*
X1043622Y1082992D1*
X992441Y917638D2*
X996378D1*
Y1094803D1*
X1023937Y1122362D1*
X964882Y949134D2*
X972756Y957008D1*
Y1122362D1*
X1008189Y1157795D1*
X846772Y862520D2*
X929449D1*
X953071Y838898D1*
X1008189D1*
X1044911Y875619D1*
Y943908D1*
X1035748Y953071D1*
Y1016063D1*
X1082992Y1063307D1*
X795591Y862520D2*
Y850709D1*
X837323Y808976D1*
X1006220D1*
X1090866Y893622D1*
Y909764D1*
X1092835Y911732D1*
X1181417Y732598D2*
Y846772D1*
X1193228Y858583D1*
X1189291Y862520D1*
X1405827Y732598D2*
X1394016D1*
X1260157Y866457D1*
X1205039Y1108189D2*
Y1202677D1*
X1319213Y941260D2*
Y1047559D1*
X1248346Y1118425D1*
Y1216850D1*
X1287717Y1256220D1*
X1449134Y1248346D2*
D15*
Y1222538D1*
D14*
X1458759Y1212913D1*
X771969Y957008D2*
D15*
Y986318D1*
D14*
X778092Y992441D1*
X716850Y1098740D2*
D15*
Y1124549D1*
D14*
X707226Y1134173D1*
X716850Y1275906D2*
D15*
Y1301714D1*
D14*
X707226Y1311339D1*
X716850Y1453071D2*
D15*
Y1478879D1*
D14*
X707226Y1488504D1*
X838898Y1807402D2*
D15*
X834961D1*
Y1765845D1*
X1012126Y1844409D2*
D14*
Y1848522D1*
D15*
X1047559D1*
X1252283Y1807402D2*
Y1765845D1*
X1449134Y1594803D2*
Y1568995D1*
D14*
X1458759Y1559370D1*
X1449134Y1421575D2*
D15*
Y1395766D1*
D14*
X1458759Y1386142D1*
X728661Y728661D2*
X894016D1*
X949134Y673543D1*
X472756Y781417D2*
Y595197D1*
X581811Y486142D1*
X945197D1*
X1358583D2*
X1236535D1*
X1193228Y442835D1*
X988504D1*
X945197Y486142D1*
X472756Y781417D2*
X616063D1*
X697165Y862520D1*
X778092Y1067244D2*
X750709D1*
X697165Y1013701D1*
Y988050D1*
Y862520D1*
X707226Y1208976D2*
X691654D1*
X618425Y1135748D1*
Y1129209D1*
Y1066790D1*
X697165Y988050D1*
X707226Y1386142D2*
X644409D1*
X626390Y1368122D1*
X594803Y1336535D1*
Y1152831D1*
X618425Y1129209D1*
X707226Y1563307D2*
Y1563131D1*
X618425Y1474331D1*
Y1376087D1*
X626390Y1368122D1*
X909764Y1765845D2*
Y1840472D1*
X897953Y1852283D1*
X852739D1*
X819213D1*
X708976Y1742047D1*
Y1565058D1*
X707226Y1563307D1*
X1122362Y1848522D2*
Y1923150D1*
X923605D1*
X852739Y1852283D1*
X1327087Y1765845D2*
Y1827566D1*
Y1903465D1*
X1142047D1*
X1122362Y1923150D1*
X1458759Y1484567D2*
X1526299D1*
X1547559Y1505827D1*
Y1607093D1*
X1327087Y1827566D1*
X1458759Y1311339D2*
X1547559D1*
Y1505827D1*
X1458759Y1138110D2*
X1539685D1*
Y1303465D1*
X1547559Y1311339D1*
X697165Y862520D2*
X698740D1*
X791654Y769606D1*
X1013701D1*
X1106614Y862520D1*
X1358583Y486142D2*
X1612126D1*
X1645984Y520000D1*
Y734173D1*
X1693228Y781417D1*
X1309370Y1169606D2*
D15*
Y1175512D1*
X1368207D1*
X868643Y1029843D2*
X923543D1*
D14*
X925512Y1031811D1*
X797777Y1171575D2*
D15*
X854646D1*
D14*
X856614Y1169606D1*
X797777Y1348740D2*
D15*
X854646D1*
D14*
X856614Y1346772D1*
X797777Y1525906D2*
D15*
X854646D1*
D14*
X856614Y1523937D1*
X872362Y1675294D2*
D15*
X911950D1*
D14*
X925512Y1661732D1*
X1084961Y1757971D2*
D15*
Y1703071D1*
D14*
X1082992Y1701102D1*
X1289685Y1675294D2*
D15*
X1254034D1*
D14*
X1240472Y1661732D1*
X1368207Y1521969D2*
D15*
X1311339D1*
D14*
X1309370Y1523937D1*
X1368207Y1348740D2*
D15*
X1311339D1*
D14*
X1309370Y1346772D1*
X1323150Y698740D2*
X1334961Y686929D1*
X1405827D1*
X1445197Y726299D1*
X1496378Y777480D1*
X697165Y697165D2*
X874331D1*
X897953Y673543D1*
X929449Y642047D1*
X984567D1*
X1043622Y701102D1*
X1138110D1*
X1157795Y681417D1*
X1287717D1*
X1307402Y661732D1*
X1435748D1*
X1445197Y671181D1*
X984567Y693228D2*
X1012126Y720787D1*
X1149921D1*
X1169606Y701102D1*
X1240472D1*
X1268031Y728661D1*
X1350709D1*
X1358583Y720787D1*
X669606Y665669D2*
X842835D1*
X850709Y657795D1*
X890079Y618425D1*
X992441D1*
X1051496Y677480D1*
X1126299D1*
X1157795Y645984D1*
X1252283D1*
X1256220Y649921D1*
X1257795D1*
X1275906Y631811D1*
X1331024D1*
X1338898Y639685D1*
X1457008D1*
X1500315Y682992D1*
X1457008Y525512D2*
D15*
X1208976D1*
X1169606Y486142D1*
X1047559Y525512D2*
X778802D1*
X685354D1*
X559370Y651496D1*
X748346Y525512D2*
D14*
X778802D1*
X1590866Y875906D2*
D15*
X1687717D1*
D14*
X1693228Y881417D1*
D29*
X1224724Y732598D3*
X949134Y673543D3*
X1012126Y1844409D3*
X838898Y1807402D3*
X1252283D3*
X1449134Y1594803D3*
X716850Y1453071D3*
X1449134Y1421575D3*
X716850Y1275906D3*
X1287717Y1256220D3*
X1449134Y1248346D3*
X1205039Y1202677D3*
X1008189Y1157795D3*
X1205039Y1108189D3*
X1023937Y1122362D3*
X716850Y1098740D3*
X1043622Y1082992D3*
X1082992Y1063307D3*
X771969Y957008D3*
X964882Y949134D3*
X1319213Y941260D3*
X992441Y917638D3*
X1220787Y903465D3*
X1092835Y911732D3*
X996378Y870394D3*
X1260157Y866457D3*
X697165Y862520D3*
X795591D3*
X846772D3*
X1106614D3*
X1189291D3*
X1496378Y777480D3*
X1181417Y732598D3*
X1405827D3*
X728661Y728661D3*
X1358583Y720787D3*
X1323150Y698740D3*
X697165Y697165D3*
X984567Y693228D3*
X1500315Y682992D3*
X897953Y673543D3*
X1445197Y671181D3*
X669606Y665669D3*
X1307402Y661732D3*
X850709Y657795D3*
X559370Y651496D3*
X1256220Y649921D3*
X1047559Y525512D3*
X1457008D3*
X945197Y486142D3*
X1169606D3*
X1358583D3*
X748346Y525512D3*
X1590866Y875906D3*
X520000Y1919213D3*
Y1765669D3*
X455039Y1805039D3*
Y1883780D3*
X584961Y1805039D3*
Y1883780D3*
X1645984Y1919213D3*
Y1765669D3*
X1581024Y1805039D3*
Y1883780D3*
X1710945Y1805039D3*
Y1883780D3*
X520000Y596378D3*
Y442835D3*
X455039Y482205D3*
Y560945D3*
X584961Y482205D3*
Y560945D3*
X1645984Y596378D3*
Y442835D3*
X1581024Y482205D3*
Y560945D3*
X1710945Y482205D3*
Y560945D3*
X472146Y1935486D2*
D16*
X1693839D1*
X462950Y1931680D2*
X1703028D1*
X455953Y1927874D2*
X1710031D1*
X450992Y1924068D2*
X1714992D1*
X446033Y1920262D2*
X1719951D1*
X442395Y1916457D2*
X1723589D1*
X439482Y1912651D2*
X1726503D1*
X436559Y1908845D2*
X1729425D1*
X433638Y1905039D2*
X1732346D1*
X431946Y1901234D2*
X1734038D1*
X430369Y1897428D2*
X1735615D1*
X428793Y1893622D2*
X1737192D1*
X427217Y1889816D2*
X1012559D1*
X1082559D2*
X1738768D1*
X426248Y1886010D2*
X1012559D1*
X1082559D2*
X1739736D1*
X425748Y1882205D2*
X1012559D1*
X1082559D2*
X1740236D1*
X425248Y1878399D2*
X995749D1*
X1082559D2*
X1740736D1*
X424748Y1874593D2*
X989383D1*
X1082559D2*
X1741236D1*
X424248Y1870787D2*
X984992D1*
X1082559D2*
X1741744D1*
X423941Y1866982D2*
X981717D1*
X1082559D2*
X1742043D1*
X423941Y1863176D2*
X979194D1*
X1082559D2*
X1742043D1*
X423941Y1859370D2*
X977280D1*
X1082559D2*
X1742043D1*
X423941Y1855564D2*
X975865D1*
X1082559D2*
X1742043D1*
X423941Y1851759D2*
X974896D1*
X1082559D2*
X1742043D1*
X423941Y1847953D2*
X974343D1*
X1082559D2*
X1742043D1*
X423941Y1844147D2*
X830726D1*
X847070D2*
X974173D1*
X1082559D2*
X1244112D1*
X1260455D2*
X1742043D1*
X423941Y1840341D2*
X820461D1*
X857335D2*
X974396D1*
X1082559D2*
X1233846D1*
X1270720D2*
X1742043D1*
X423941Y1836535D2*
X814801D1*
X862995D2*
X975012D1*
X1082559D2*
X1228186D1*
X1276381D2*
X1742043D1*
X423941Y1832730D2*
X810772D1*
X867024D2*
X976034D1*
X1082559D2*
X1224157D1*
X1280409D2*
X1742043D1*
X423941Y1828924D2*
X807719D1*
X870076D2*
X977518D1*
X1082559D2*
X1221105D1*
X1283462D2*
X1742043D1*
X423941Y1825118D2*
X805390D1*
X872406D2*
X979509D1*
X1082559D2*
X1218776D1*
X1285791D2*
X1742043D1*
X423941Y1821312D2*
X803613D1*
X874182D2*
X982117D1*
X1082559D2*
X1216999D1*
X1287568D2*
X1742043D1*
X423941Y1817507D2*
X802329D1*
X875466D2*
X985522D1*
X1082559D2*
X1215715D1*
X1288852D2*
X1742043D1*
X423941Y1813701D2*
X801475D1*
X876320D2*
X990106D1*
X1082559D2*
X1214861D1*
X1289706D2*
X1742043D1*
X423941Y1809895D2*
X801029D1*
X876766D2*
X996919D1*
X1082559D2*
X1214415D1*
X1290152D2*
X1742043D1*
X423941Y1806089D2*
X799961D1*
X876828D2*
X1012559D1*
X1082559D2*
X1214353D1*
X1290214D2*
X1742043D1*
X423941Y1802283D2*
X799961D1*
X876497D2*
X1214684D1*
X1289883D2*
X1742043D1*
X423941Y1798478D2*
X799961D1*
X875774D2*
X1049961D1*
X1119961D2*
X1215407D1*
X1289160D2*
X1742043D1*
X423941Y1794672D2*
X799961D1*
X874629D2*
X1049961D1*
X1119961D2*
X1216552D1*
X1288014D2*
X1742051D1*
X423941Y1790866D2*
X799961D1*
X873013D2*
X1049961D1*
X1119961D2*
X1217283D1*
X1287283D2*
X1742051D1*
X423941Y1787060D2*
X799961D1*
X870869D2*
X1049961D1*
X1119961D2*
X1217283D1*
X1287283D2*
X1742051D1*
X423941Y1783255D2*
X799961D1*
X869961D2*
X1049961D1*
X1119961D2*
X1217283D1*
X1287283D2*
X1742051D1*
X423941Y1779449D2*
X799961D1*
X869961D2*
X1049961D1*
X1119961D2*
X1217283D1*
X1287283D2*
X1742051D1*
X423941Y1775643D2*
X799961D1*
X869961D2*
X1049961D1*
X1119961D2*
X1217283D1*
X1287283D2*
X1742051D1*
X423941Y1771837D2*
X799961D1*
X869961D2*
X1049961D1*
X1119961D2*
X1217283D1*
X1287283D2*
X1742051D1*
X423941Y1768031D2*
X799961D1*
X869961D2*
X1049961D1*
X1119961D2*
X1217283D1*
X1287283D2*
X1742051D1*
X423941Y1764226D2*
X799961D1*
X869961D2*
X1049961D1*
X1119961D2*
X1217283D1*
X1287283D2*
X1742051D1*
X423941Y1760420D2*
X799961D1*
X869961D2*
X1049961D1*
X1119961D2*
X1217283D1*
X1287283D2*
X1742051D1*
X423941Y1756614D2*
X799961D1*
X869961D2*
X1049961D1*
X1119961D2*
X1217283D1*
X1287283D2*
X1742051D1*
X423941Y1752808D2*
X799961D1*
X869961D2*
X1049961D1*
X1119961D2*
X1217283D1*
X1287283D2*
X1742051D1*
X423941Y1749003D2*
X799961D1*
X869961D2*
X1049961D1*
X1119961D2*
X1217283D1*
X1287283D2*
X1742051D1*
X423941Y1745197D2*
X799961D1*
X869961D2*
X1049961D1*
X1119961D2*
X1217283D1*
X1287283D2*
X1742051D1*
X423941Y1741391D2*
X799961D1*
X869961D2*
X1047692D1*
X1119961D2*
X1217283D1*
X1287283D2*
X1742051D1*
X423941Y1737585D2*
X799961D1*
X869961D2*
X1043732D1*
X1122252D2*
X1217283D1*
X1287283D2*
X1742051D1*
X423941Y1733780D2*
X799961D1*
X869961D2*
X1040479D1*
X1125505D2*
X1217283D1*
X1287283D2*
X1742051D1*
X423941Y1729974D2*
X799961D1*
X869961D2*
X1037787D1*
X1128197D2*
X1217283D1*
X1287283D2*
X1742051D1*
X423941Y1726168D2*
X799961D1*
X869961D2*
X1035550D1*
X1130434D2*
X1217283D1*
X1287283D2*
X1742051D1*
X423941Y1722362D2*
X1033713D1*
X1132272D2*
X1742051D1*
X423941Y1718556D2*
X1032228D1*
X1133756D2*
X1742051D1*
X423941Y1714751D2*
X837362D1*
X907362D2*
X919577D1*
X931446D2*
X1031067D1*
X1134917D2*
X1234538D1*
X1246407D2*
X1254685D1*
X1324685D2*
X1742051D1*
X423941Y1710945D2*
X837362D1*
X946394D2*
X1030206D1*
X1135778D2*
X1219591D1*
X1324685D2*
X1742051D1*
X423941Y1707139D2*
X837362D1*
X953829D2*
X1029638D1*
X1136346D2*
X1212155D1*
X1324685D2*
X1742051D1*
X423941Y1703333D2*
X837362D1*
X959235D2*
X1029337D1*
X1136647D2*
X1206749D1*
X1324685D2*
X1742051D1*
X423941Y1699528D2*
X837362D1*
X963496D2*
X1029314D1*
X1136671D2*
X1202488D1*
X1324685D2*
X1742051D1*
X423941Y1695722D2*
X837362D1*
X966971D2*
X1029560D1*
X1136424D2*
X1199013D1*
X1324685D2*
X1742051D1*
X423941Y1691916D2*
X837362D1*
X969846D2*
X1030091D1*
X1135894D2*
X1196138D1*
X1324685D2*
X1742051D1*
X423941Y1688110D2*
X837362D1*
X972231D2*
X1030898D1*
X1135087D2*
X1193753D1*
X1324685D2*
X1742051D1*
X423941Y1684304D2*
X837362D1*
X974199D2*
X1032005D1*
X1133979D2*
X1191785D1*
X1324685D2*
X1742051D1*
X423941Y1680499D2*
X837362D1*
X975799D2*
X1033436D1*
X1132549D2*
X1190185D1*
X1324685D2*
X1742051D1*
X423941Y1676693D2*
X468790D1*
X476722D2*
X837362D1*
X977067D2*
X1035213D1*
X1130772D2*
X1188917D1*
X1324685D2*
X1742051D1*
X423941Y1672887D2*
X444961D1*
X500551D2*
X837362D1*
X978037D2*
X1037373D1*
X1128612D2*
X1187948D1*
X1324685D2*
X1690093D1*
X1696364D2*
X1742051D1*
X423941Y1669081D2*
X436572D1*
X508940D2*
X837362D1*
X978705D2*
X1039979D1*
X1126005D2*
X1187280D1*
X1324685D2*
X1666079D1*
X1720378D2*
X1742051D1*
X423941Y1665276D2*
X429105D1*
X516407D2*
X837362D1*
X979097D2*
X1043125D1*
X1122860D2*
X1186887D1*
X1324685D2*
X1657306D1*
X1729151D2*
X1742051D1*
X523873Y1661470D2*
X837362D1*
X979213D2*
X1046946D1*
X1119038D2*
X1186772D1*
X1324685D2*
X1649831D1*
X1736626D2*
X1742051D1*
X529525Y1657664D2*
X837362D1*
X979059D2*
X1051698D1*
X1114286D2*
X1186925D1*
X1324685D2*
X1642365D1*
X533331Y1653858D2*
X837362D1*
X978629D2*
X1057904D1*
X1108080D2*
X1187356D1*
X1324685D2*
X1636591D1*
X537138Y1650052D2*
X837362D1*
X977921D2*
X1067255D1*
X1098730D2*
X1188063D1*
X1324685D2*
X1632783D1*
X540944Y1646247D2*
X837362D1*
X976913D2*
X1189071D1*
X1324685D2*
X1628978D1*
X544751Y1642441D2*
X837362D1*
X975598D2*
X1190386D1*
X1324685D2*
X1625171D1*
X548218Y1638635D2*
X837362D1*
X973945D2*
X1192039D1*
X1324685D2*
X1621365D1*
X550286Y1634829D2*
X837362D1*
X971923D2*
X1194062D1*
X1324685D2*
X1617850D1*
X552224Y1631024D2*
X881546D1*
X969478D2*
X1196507D1*
X1284438D2*
X1438802D1*
X1459466D2*
X1615760D1*
X554169Y1627218D2*
X884491D1*
X966533D2*
X1199451D1*
X1281493D2*
X1429766D1*
X1468501D2*
X1613822D1*
X556108Y1623412D2*
X888059D1*
X962965D2*
X1203020D1*
X1277925D2*
X1424407D1*
X1473861D2*
X1611883D1*
X558045Y1619606D2*
X892449D1*
X958575D2*
X1207409D1*
X1273535D2*
X1420539D1*
X1477728D2*
X1609946D1*
X559983Y1615801D2*
X898063D1*
X952961D2*
X1213024D1*
X1267921D2*
X1417601D1*
X1480667D2*
X1608008D1*
X561467Y1611995D2*
X905937D1*
X945087D2*
X1220898D1*
X1260047D2*
X1415349D1*
X1482919D2*
X1606063D1*
X562097Y1608189D2*
X1413650D1*
X1484618D2*
X1604555D1*
X562705Y1604383D2*
X1412427D1*
X1485841D2*
X1603902D1*
X563304Y1600577D2*
X1411627D1*
X1486640D2*
X1603302D1*
X563904Y1596772D2*
X1411235D1*
X1487033D2*
X1602702D1*
X564512Y1592966D2*
X1411227D1*
X1501635D2*
X1602094D1*
X565112Y1589160D2*
X1411604D1*
X1501635D2*
X1601495D1*
X565650Y1585354D2*
X1412388D1*
X1501635D2*
X1600888D1*
X565366Y1581549D2*
X1413596D1*
X1501635D2*
X1600343D1*
X564759Y1577743D2*
X1415280D1*
X1501635D2*
X1600604D1*
X564159Y1573937D2*
X837739D1*
X875490D2*
X1290495D1*
X1328245D2*
X1415887D1*
X1501635D2*
X1601203D1*
X563559Y1570131D2*
X829618D1*
X883610D2*
X1282374D1*
X1336366D2*
X1415887D1*
X1501635D2*
X1601803D1*
X562951Y1566325D2*
X823898D1*
X889331D2*
X1276654D1*
X1342087D2*
X1415887D1*
X1501635D2*
X1602411D1*
X562352Y1562520D2*
X819438D1*
X893790D2*
X1272194D1*
X1346546D2*
X1415887D1*
X1501635D2*
X1603010D1*
X561744Y1558714D2*
X754900D1*
X897412D2*
X1268572D1*
X1350168D2*
X1415887D1*
X1501635D2*
X1603618D1*
X560744Y1554908D2*
X754900D1*
X900396D2*
X1265588D1*
X1411084D2*
X1415887D1*
X1501635D2*
X1604218D1*
X558845Y1551102D2*
X754900D1*
X902871D2*
X1263113D1*
X1411084D2*
X1415887D1*
X1501635D2*
X1605186D1*
X556907Y1547297D2*
X754900D1*
X904925D2*
X1261059D1*
X1411084D2*
X1415887D1*
X1501635D2*
X1607070D1*
X554970Y1543491D2*
X754900D1*
X906601D2*
X1259383D1*
X1411084D2*
X1415887D1*
X1501635D2*
X1609008D1*
X553031Y1539685D2*
X754900D1*
X907940D2*
X1258045D1*
X1411084D2*
X1415887D1*
X1501635D2*
X1610946D1*
X551094Y1535879D2*
X754900D1*
X908962D2*
X1257022D1*
X1411084D2*
X1415887D1*
X1501635D2*
X1612883D1*
X549148Y1532073D2*
X754900D1*
X909693D2*
X1256291D1*
X1411084D2*
X1415887D1*
X1501635D2*
X1614829D1*
X550425Y1528268D2*
X754900D1*
X910138D2*
X1255846D1*
X1411084D2*
X1415887D1*
X1501635D2*
X1615559D1*
X552362Y1524462D2*
X754900D1*
X910315D2*
X1255669D1*
X1411084D2*
X1613622D1*
X554301Y1520656D2*
X664349D1*
X750097D2*
X754900D1*
X910215D2*
X1255769D1*
X1411084D2*
X1611684D1*
X556238Y1516850D2*
X664349D1*
X750097D2*
X754900D1*
X909839D2*
X1256146D1*
X1411084D2*
X1609747D1*
X558176Y1513045D2*
X664349D1*
X750097D2*
X754900D1*
X909193D2*
X1256791D1*
X1411084D2*
X1607808D1*
X560121Y1509239D2*
X664349D1*
X750097D2*
X754900D1*
X908247D2*
X1257738D1*
X1411084D2*
X1605864D1*
X561521Y1505433D2*
X664349D1*
X750097D2*
X754900D1*
X907001D2*
X1258983D1*
X1411084D2*
X1604463D1*
X562143Y1501627D2*
X664349D1*
X750097D2*
X754900D1*
X905425D2*
X1260559D1*
X1411084D2*
X1603841D1*
X562744Y1497822D2*
X664349D1*
X750097D2*
X754900D1*
X903479D2*
X1262505D1*
X1411084D2*
X1603240D1*
X563344Y1494016D2*
X664349D1*
X750097D2*
X754900D1*
X901126D2*
X1264858D1*
X1411084D2*
X1602640D1*
X563950Y1490210D2*
X664349D1*
X750097D2*
X814940D1*
X898289D2*
X1267696D1*
X1411084D2*
X1602034D1*
X564550Y1486404D2*
X664349D1*
X750097D2*
X818369D1*
X894860D2*
X1271125D1*
X1347615D2*
X1601434D1*
X565157Y1482598D2*
X664349D1*
X750097D2*
X822567D1*
X890661D2*
X1275323D1*
X1343417D2*
X1600827D1*
X565657Y1478793D2*
X664349D1*
X750097D2*
X827873D1*
X885356D2*
X1280629D1*
X1338112D2*
X1600327D1*
X565319Y1474987D2*
X664349D1*
X750097D2*
X835117D1*
X878112D2*
X1287873D1*
X1330867D2*
X1600665D1*
X564719Y1471181D2*
X664349D1*
X750151D2*
X848573D1*
X864655D2*
X1301329D1*
X1317411D2*
X1601265D1*
X564112Y1467375D2*
X664349D1*
X751974D2*
X1601873D1*
X563512Y1463570D2*
X664349D1*
X753304D2*
X1054051D1*
X1111933D2*
X1602472D1*
X562912Y1459764D2*
X664349D1*
X754203D2*
X1041495D1*
X1124490D2*
X1603072D1*
X562306Y1455958D2*
X664349D1*
X754696D2*
X1032252D1*
X1133732D2*
X1433626D1*
X1464642D2*
X1603678D1*
X561705Y1452152D2*
X678906D1*
X754795D2*
X1024709D1*
X1141276D2*
X1426929D1*
X1471339D2*
X1604280D1*
X560629Y1448346D2*
X679197D1*
X754504D2*
X1018265D1*
X1147719D2*
X1422400D1*
X1475867D2*
X1605356D1*
X558714Y1444541D2*
X679882D1*
X753819D2*
X1012613D1*
X1153371D2*
X1419024D1*
X1479244D2*
X1607270D1*
X556777Y1440735D2*
X680982D1*
X752719D2*
X1007584D1*
X1158400D2*
X1416433D1*
X1481835D2*
X1609207D1*
X554839Y1436929D2*
X682542D1*
X751159D2*
X1003047D1*
X1162937D2*
X1414465D1*
X1483803D2*
X1611146D1*
X552894Y1433123D2*
X684634D1*
X749067D2*
X998933D1*
X1167051D2*
X1413004D1*
X1485264D2*
X1613091D1*
X550955Y1429318D2*
X687364D1*
X746337D2*
X995173D1*
X1170811D2*
X1411988D1*
X1486280D2*
X1615029D1*
X549018Y1425512D2*
X690940D1*
X742761D2*
X991728D1*
X1174256D2*
X1411388D1*
X1486879D2*
X1616966D1*
X546058Y1421706D2*
X695791D1*
X737909D2*
X988568D1*
X1177416D2*
X1411181D1*
X1487087D2*
X1619927D1*
X542251Y1417900D2*
X703273D1*
X730428D2*
X985661D1*
X1180323D2*
X1411358D1*
X1501635D2*
X1623734D1*
X538445Y1414094D2*
X982978D1*
X1183007D2*
X1411934D1*
X1501635D2*
X1627539D1*
X534646Y1410289D2*
X980509D1*
X1185475D2*
X1412919D1*
X1501635D2*
X1631339D1*
X530840Y1406483D2*
X978240D1*
X1187744D2*
X1414349D1*
X1501635D2*
X1635144D1*
X526403Y1402677D2*
X976150D1*
X1189835D2*
X1415887D1*
X1501635D2*
X1639581D1*
X423941Y1398871D2*
X426526D1*
X518983D2*
X844936D1*
X868293D2*
X974235D1*
X1191749D2*
X1297692D1*
X1321049D2*
X1415887D1*
X1501635D2*
X1647001D1*
X1739455D2*
X1742051D1*
X423941Y1395066D2*
X433996D1*
X511516D2*
X833656D1*
X879572D2*
X972490D1*
X1193495D2*
X1286412D1*
X1332328D2*
X1415887D1*
X1501635D2*
X1654469D1*
X1731988D2*
X1742051D1*
X423941Y1391260D2*
X441470D1*
X504042D2*
X826850D1*
X886378D2*
X970898D1*
X1195087D2*
X1279606D1*
X1339134D2*
X1415887D1*
X1501635D2*
X1661942D1*
X1724514D2*
X1742051D1*
X423941Y1387454D2*
X460509D1*
X485003D2*
X821776D1*
X891453D2*
X969451D1*
X1196533D2*
X1274531D1*
X1344209D2*
X1415887D1*
X1501635D2*
X1680982D1*
X1705475D2*
X1742051D1*
X423941Y1383648D2*
X817723D1*
X895505D2*
X968160D1*
X1197824D2*
X1270479D1*
X1348261D2*
X1415887D1*
X1501635D2*
X1742051D1*
X423941Y1379843D2*
X754900D1*
X898819D2*
X966999D1*
X1198986D2*
X1267165D1*
X1411084D2*
X1415887D1*
X1501635D2*
X1742051D1*
X423941Y1376037D2*
X754900D1*
X901564D2*
X965976D1*
X1200008D2*
X1264420D1*
X1411084D2*
X1415887D1*
X1501635D2*
X1742051D1*
X423941Y1372231D2*
X754900D1*
X903841D2*
X965092D1*
X1200892D2*
X1262143D1*
X1411084D2*
X1415887D1*
X1501635D2*
X1742051D1*
X423941Y1368425D2*
X754900D1*
X905717D2*
X964331D1*
X1201654D2*
X1260268D1*
X1411084D2*
X1415887D1*
X1501635D2*
X1742051D1*
X423941Y1364619D2*
X754900D1*
X907239D2*
X963693D1*
X1202291D2*
X1258745D1*
X1411084D2*
X1415887D1*
X1501635D2*
X1742051D1*
X423941Y1360814D2*
X754900D1*
X908432D2*
X963185D1*
X1202799D2*
X1257552D1*
X1411084D2*
X1415887D1*
X1501635D2*
X1742051D1*
X423941Y1357008D2*
X754900D1*
X909323D2*
X962801D1*
X1203184D2*
X1256661D1*
X1411084D2*
X1415887D1*
X1501635D2*
X1742051D1*
X423941Y1353202D2*
X754900D1*
X909923D2*
X962531D1*
X1203453D2*
X1256062D1*
X1411084D2*
X1415887D1*
X1501635D2*
X1742051D1*
X423941Y1349396D2*
X754900D1*
X910253D2*
X962392D1*
X1203592D2*
X1255731D1*
X1411084D2*
X1742051D1*
X423941Y1345591D2*
X664349D1*
X750097D2*
X754900D1*
X910299D2*
X962370D1*
X1203614D2*
X1255685D1*
X1411084D2*
X1742051D1*
X423941Y1341785D2*
X664349D1*
X750097D2*
X754900D1*
X910084D2*
X962462D1*
X1203522D2*
X1255900D1*
X1411084D2*
X1742051D1*
X423941Y1337979D2*
X664349D1*
X750097D2*
X754900D1*
X909584D2*
X962685D1*
X1203299D2*
X1256400D1*
X1411084D2*
X1742051D1*
X423941Y1334173D2*
X664349D1*
X750097D2*
X754900D1*
X908808D2*
X963024D1*
X1202961D2*
X1257176D1*
X1411084D2*
X1742051D1*
X423941Y1330367D2*
X450382D1*
X495130D2*
X664349D1*
X750097D2*
X754900D1*
X907731D2*
X963484D1*
X1202500D2*
X1258253D1*
X1411084D2*
X1670854D1*
X1715602D2*
X1742051D1*
X423941Y1326562D2*
X441938D1*
X503573D2*
X664349D1*
X750097D2*
X754900D1*
X906332D2*
X964070D1*
X1201915D2*
X1259652D1*
X1411084D2*
X1662411D1*
X1724046D2*
X1742051D1*
X423941Y1322756D2*
X436126D1*
X509386D2*
X664349D1*
X750097D2*
X754900D1*
X904602D2*
X964785D1*
X1201199D2*
X1261382D1*
X1411084D2*
X1656598D1*
X1729858D2*
X1742051D1*
X423941Y1318950D2*
X431643D1*
X513869D2*
X664349D1*
X750097D2*
X754900D1*
X902479D2*
X965622D1*
X1200362D2*
X1263505D1*
X1411084D2*
X1652115D1*
X1734341D2*
X1742051D1*
X423941Y1315144D2*
X428029D1*
X517483D2*
X664349D1*
X750097D2*
X754900D1*
X899919D2*
X966598D1*
X1199386D2*
X1266066D1*
X1411084D2*
X1648501D1*
X1737955D2*
X1742051D1*
X520444Y1311339D2*
X664349D1*
X750097D2*
X816392D1*
X896836D2*
X967698D1*
X1198286D2*
X1269148D1*
X1349592D2*
X1645541D1*
X522896Y1307533D2*
X664349D1*
X750097D2*
X820138D1*
X893091D2*
X968945D1*
X1197039D2*
X1272894D1*
X1345846D2*
X1643088D1*
X524911Y1303727D2*
X664349D1*
X750097D2*
X824774D1*
X888454D2*
X970328D1*
X1195656D2*
X1277530D1*
X1341210D2*
X1641073D1*
X526542Y1299921D2*
X664349D1*
X750097D2*
X830787D1*
X882441D2*
X971866D1*
X1194118D2*
X1283543D1*
X1335197D2*
X1639442D1*
X527833Y1296115D2*
X664349D1*
X750097D2*
X839623D1*
X873605D2*
X973550D1*
X1192434D2*
X1292379D1*
X1326361D2*
X1638151D1*
X528802Y1292310D2*
X664349D1*
X751028D2*
X975403D1*
X1190581D2*
X1276915D1*
X1298518D2*
X1637182D1*
X529471Y1288504D2*
X664349D1*
X752627D2*
X977425D1*
X1188559D2*
X1268126D1*
X1307307D2*
X1636513D1*
X529856Y1284698D2*
X664349D1*
X753757D2*
X979625D1*
X1186360D2*
X1262836D1*
X1312597D2*
X1439294D1*
X1458974D2*
X1636129D1*
X529955Y1280892D2*
X664349D1*
X754472D2*
X982016D1*
X1183969D2*
X1259007D1*
X1316427D2*
X1429997D1*
X1468270D2*
X1636029D1*
X529778Y1277087D2*
X664349D1*
X754787D2*
X984615D1*
X1181369D2*
X1256092D1*
X1319341D2*
X1424560D1*
X1473707D2*
X1636206D1*
X529318Y1273281D2*
X678990D1*
X754711D2*
X987437D1*
X1178547D2*
X1253862D1*
X1321571D2*
X1420655D1*
X1477613D2*
X1636667D1*
X528564Y1269475D2*
X679451D1*
X754249D2*
X990497D1*
X1175487D2*
X1252178D1*
X1323255D2*
X1417686D1*
X1480581D2*
X1637420D1*
X527510Y1265669D2*
X680320D1*
X753381D2*
X993835D1*
X1172150D2*
X1250971D1*
X1324462D2*
X1415417D1*
X1482850D2*
X1638474D1*
X526126Y1261864D2*
X681619D1*
X752081D2*
X997465D1*
X1168520D2*
X1250186D1*
X1325247D2*
X1413696D1*
X1484572D2*
X1639858D1*
X524396Y1258058D2*
X683411D1*
X750290D2*
X1001440D1*
X1164545D2*
X1249810D1*
X1325623D2*
X1412458D1*
X1485810D2*
X1641588D1*
X522266Y1254252D2*
X685764D1*
X747937D2*
X1005807D1*
X1160177D2*
X1246157D1*
X1325615D2*
X1411650D1*
X1486618D2*
X1643718D1*
X519682Y1250446D2*
X688840D1*
X744861D2*
X1010636D1*
X1155348D2*
X1242350D1*
X1325223D2*
X1411243D1*
X1487025D2*
X1646302D1*
X516552Y1246640D2*
X692916D1*
X740785D2*
X1016034D1*
X1149950D2*
X1238545D1*
X1324424D2*
X1411219D1*
X1501635D2*
X1649432D1*
X512731Y1242835D2*
X698652D1*
X735049D2*
X1022148D1*
X1143836D2*
X1234739D1*
X1323201D2*
X1411588D1*
X1501635D2*
X1653253D1*
X507941Y1239029D2*
X709332D1*
X724369D2*
X1029230D1*
X1136755D2*
X1195199D1*
X1214879D2*
X1230932D1*
X1321501D2*
X1412357D1*
X1501635D2*
X1658043D1*
X501612Y1235223D2*
X1037727D1*
X1128257D2*
X1185903D1*
X1224176D2*
X1227202D1*
X1319249D2*
X1413550D1*
X1501635D2*
X1664373D1*
X491731Y1231417D2*
X1048684D1*
X1117301D2*
X1180466D1*
X1316311D2*
X1415210D1*
X1501635D2*
X1674253D1*
X501612Y1227612D2*
X1066547D1*
X1099437D2*
X1176560D1*
X1312444D2*
X1415887D1*
X1501635D2*
X1664373D1*
X507941Y1223806D2*
X1173592D1*
X1307084D2*
X1415887D1*
X1501635D2*
X1658043D1*
X512731Y1220000D2*
X838839D1*
X874390D2*
X1171323D1*
X1327146D2*
X1415887D1*
X1501635D2*
X1653253D1*
X516552Y1216194D2*
X830311D1*
X882917D2*
X1169601D1*
X1335673D2*
X1415887D1*
X1501635D2*
X1649432D1*
X519682Y1212388D2*
X824421D1*
X888807D2*
X1168364D1*
X1341563D2*
X1415887D1*
X1501635D2*
X1646302D1*
X522266Y1208583D2*
X819853D1*
X893375D2*
X1167555D1*
X1411084D2*
X1415887D1*
X1501635D2*
X1643718D1*
X524396Y1204777D2*
X754900D1*
X897066D2*
X1167148D1*
X1411084D2*
X1415887D1*
X1501635D2*
X1641588D1*
X526126Y1200971D2*
X754900D1*
X900112D2*
X1167125D1*
X1411084D2*
X1415887D1*
X1501635D2*
X1639858D1*
X527510Y1197165D2*
X754900D1*
X902640D2*
X1167493D1*
X1411084D2*
X1415887D1*
X1501635D2*
X1638474D1*
X528564Y1193360D2*
X754900D1*
X904732D2*
X995719D1*
X1020659D2*
X1168262D1*
X1411084D2*
X1415887D1*
X1501635D2*
X1637420D1*
X529318Y1189554D2*
X754900D1*
X906440D2*
X987745D1*
X1028633D2*
X1169455D1*
X1411084D2*
X1415887D1*
X1501635D2*
X1636667D1*
X529778Y1185748D2*
X754900D1*
X907816D2*
X982709D1*
X1033669D2*
X1171115D1*
X1411084D2*
X1415887D1*
X1501635D2*
X1636206D1*
X529955Y1181942D2*
X754900D1*
X908870D2*
X979025D1*
X1037353D2*
X1173331D1*
X1411084D2*
X1415887D1*
X1501635D2*
X1636029D1*
X529856Y1178136D2*
X754900D1*
X909631D2*
X976218D1*
X1040160D2*
X1176214D1*
X1411084D2*
X1636129D1*
X529471Y1174331D2*
X754900D1*
X910108D2*
X974073D1*
X1042304D2*
X1176929D1*
X1411084D2*
X1636513D1*
X528802Y1170525D2*
X754900D1*
X910307D2*
X972458D1*
X1043920D2*
X1176929D1*
X1411084D2*
X1637182D1*
X527833Y1166719D2*
X664349D1*
X750097D2*
X754900D1*
X910239D2*
X971312D1*
X1045066D2*
X1176929D1*
X1411084D2*
X1638151D1*
X526542Y1162913D2*
X664349D1*
X750097D2*
X754900D1*
X909892D2*
X970589D1*
X1045789D2*
X1176929D1*
X1411084D2*
X1639442D1*
X524911Y1159108D2*
X664349D1*
X750097D2*
X754900D1*
X909269D2*
X969913D1*
X1046119D2*
X1176929D1*
X1411084D2*
X1641073D1*
X522896Y1155302D2*
X664349D1*
X750097D2*
X754900D1*
X908362D2*
X966106D1*
X1046058D2*
X1176929D1*
X1411084D2*
X1643088D1*
X520444Y1151496D2*
X664349D1*
X750097D2*
X754900D1*
X907147D2*
X962301D1*
X1048034D2*
X1176929D1*
X1411084D2*
X1645541D1*
X517483Y1147690D2*
X664349D1*
X750097D2*
X754900D1*
X905601D2*
X958495D1*
X1052063D2*
X1176929D1*
X1411084D2*
X1648501D1*
X513869Y1143885D2*
X664349D1*
X750097D2*
X754900D1*
X903702D2*
X954688D1*
X1055115D2*
X1176929D1*
X1411084D2*
X1652115D1*
X509386Y1140079D2*
X664349D1*
X750097D2*
X754900D1*
X901387D2*
X951043D1*
X1057445D2*
X1176929D1*
X1354143D2*
X1656598D1*
X503573Y1136273D2*
X664349D1*
X750097D2*
X814625D1*
X898604D2*
X948390D1*
X1059222D2*
X1176929D1*
X1351360D2*
X1662411D1*
X495130Y1132467D2*
X664349D1*
X750097D2*
X817976D1*
X895252D2*
X946552D1*
X1060505D2*
X1175991D1*
X1348008D2*
X1670854D1*
X499421Y1128661D2*
X664349D1*
X750097D2*
X822083D1*
X891146D2*
X945369D1*
X1061360D2*
X1173154D1*
X1343902D2*
X1666563D1*
X506387Y1124856D2*
X664349D1*
X750097D2*
X827259D1*
X885970D2*
X944761D1*
X1061806D2*
X1170986D1*
X1338726D2*
X1659597D1*
X511524Y1121050D2*
X664349D1*
X750097D2*
X834224D1*
X879004D2*
X944646D1*
X1061867D2*
X1169354D1*
X1331760D2*
X1654461D1*
X515576Y1117244D2*
X664349D1*
X750097D2*
X846228D1*
X867000D2*
X944646D1*
X1061537D2*
X1168194D1*
X1289122D2*
X1298984D1*
X1319756D2*
X1650408D1*
X518883Y1113438D2*
X664349D1*
X751804D2*
X944646D1*
X1066012D2*
X1167455D1*
X1292928D2*
X1647101D1*
X521605Y1109633D2*
X664349D1*
X753189D2*
X944646D1*
X1070495D2*
X1167117D1*
X1296726D2*
X1644379D1*
X523850Y1105827D2*
X664349D1*
X754126D2*
X944646D1*
X1073840D2*
X1167163D1*
X1300533D2*
X1642134D1*
X525688Y1102021D2*
X664349D1*
X754657D2*
X944646D1*
X1076400D2*
X1167594D1*
X1304339D2*
X1640297D1*
X527164Y1098215D2*
X678898D1*
X754803D2*
X944646D1*
X1097247D2*
X1168432D1*
X1308146D2*
X1638820D1*
X528302Y1094409D2*
X679151D1*
X754550D2*
X944646D1*
X1104444D2*
X1169709D1*
X1311951D2*
X1637682D1*
X529140Y1090604D2*
X679790D1*
X753911D2*
X944646D1*
X1109188D2*
X1171454D1*
X1315757D2*
X1636844D1*
X529678Y1086798D2*
X680850D1*
X752850D2*
X944646D1*
X1112694D2*
X1173777D1*
X1319564D2*
X1636306D1*
X529940Y1082992D2*
X682358D1*
X751343D2*
X910213D1*
X940811D2*
X944646D1*
X1115370D2*
X1176790D1*
X1323370D2*
X1636045D1*
X529909Y1079186D2*
X684387D1*
X749314D2*
X900677D1*
X1117424D2*
X1180781D1*
X1327177D2*
X1636075D1*
X529609Y1075381D2*
X687049D1*
X746652D2*
X894403D1*
X1118954D2*
X1186364D1*
X1330983D2*
X1636375D1*
X529017Y1071575D2*
X690516D1*
X743185D2*
X889612D1*
X1120022D2*
X1196276D1*
X1334789D2*
X1636967D1*
X528133Y1067769D2*
X695207D1*
X738493D2*
X885768D1*
X1120676D2*
X1200728D1*
X1338596D2*
X1637852D1*
X526933Y1063963D2*
X702273D1*
X731428D2*
X825766D1*
X1120937D2*
X1197560D1*
X1341948D2*
X1639051D1*
X525396Y1060157D2*
X825766D1*
X1120815D2*
X1194930D1*
X1344294D2*
X1640588D1*
X523496Y1056352D2*
X825766D1*
X1120291D2*
X1192753D1*
X1345892D2*
X1642488D1*
X521175Y1052546D2*
X825766D1*
X1119369D2*
X1190970D1*
X1346869D2*
X1644810D1*
X518360Y1048740D2*
X825766D1*
X1118008D2*
X1189531D1*
X1347301D2*
X1647625D1*
X514938Y1044934D2*
X825766D1*
X1116147D2*
X1188409D1*
X1347323D2*
X1651046D1*
X510724Y1041129D2*
X825766D1*
X1113694D2*
X1187594D1*
X1347323D2*
X1655260D1*
X505357Y1037323D2*
X825766D1*
X1112148D2*
X1187056D1*
X1347323D2*
X1660627D1*
X497898Y1033517D2*
X825766D1*
X1117362D2*
X1186802D1*
X1347323D2*
X1668087D1*
X496913Y1029711D2*
X825766D1*
X1121499D2*
X1186810D1*
X1347323D2*
X1669071D1*
X504703Y1025906D2*
X735215D1*
X820963D2*
X825766D1*
X1124882D2*
X1187102D1*
X1347323D2*
X1661281D1*
X510232Y1022100D2*
X735215D1*
X820963D2*
X825766D1*
X1127681D2*
X1187664D1*
X1347323D2*
X1655752D1*
X514546Y1018294D2*
X735215D1*
X820963D2*
X825766D1*
X1130003D2*
X1188517D1*
X1347323D2*
X1651438D1*
X518037Y1014488D2*
X735215D1*
X820963D2*
X825766D1*
X1131917D2*
X1189663D1*
X1347323D2*
X1647948D1*
X520906Y1010682D2*
X735215D1*
X820963D2*
X825766D1*
X1133471D2*
X1191139D1*
X1347323D2*
X1645079D1*
X523273Y1006877D2*
X735215D1*
X820963D2*
X825766D1*
X1134702D2*
X1192962D1*
X1287983D2*
X1291102D1*
X1347323D2*
X1642711D1*
X525219Y1003071D2*
X735215D1*
X820963D2*
X825766D1*
X1135625D2*
X1195184D1*
X1285761D2*
X1291102D1*
X1347323D2*
X1640765D1*
X526787Y999265D2*
X735215D1*
X820963D2*
X825766D1*
X1136255D2*
X1197860D1*
X1283085D2*
X1291102D1*
X1347323D2*
X1639197D1*
X528018Y995459D2*
X735215D1*
X820963D2*
X825766D1*
X1136609D2*
X1201089D1*
X1279856D2*
X1291102D1*
X1347323D2*
X1637966D1*
X528941Y991654D2*
X735215D1*
X820963D2*
X890058D1*
X1136685D2*
X1205018D1*
X1275927D2*
X1291102D1*
X1347323D2*
X1637043D1*
X529563Y987848D2*
X735215D1*
X820963D2*
X894971D1*
X1136493D2*
X1209932D1*
X1271013D2*
X1291102D1*
X1347323D2*
X1636421D1*
X529894Y984042D2*
X735215D1*
X820963D2*
X901462D1*
X1136024D2*
X1216423D1*
X1264522D2*
X1291102D1*
X1347323D2*
X1636091D1*
X529948Y980236D2*
X735215D1*
X820963D2*
X911642D1*
X939382D2*
X943430D1*
X1135278D2*
X1226602D1*
X1254343D2*
X1291102D1*
X1347323D2*
X1636037D1*
X529717Y976430D2*
X735215D1*
X820963D2*
X938686D1*
X1134232D2*
X1291102D1*
X1347323D2*
X1636268D1*
X529210Y972625D2*
X735215D1*
X820963D2*
X935180D1*
X1132871D2*
X1291102D1*
X1347323D2*
X1636774D1*
X528403Y968819D2*
X735215D1*
X820963D2*
X932504D1*
X1131172D2*
X1291102D1*
X1347323D2*
X1637581D1*
X527295Y965013D2*
X734877D1*
X820963D2*
X930450D1*
X1129096D2*
X1289726D1*
X1348699D2*
X1638689D1*
X525857Y961207D2*
X734255D1*
X820963D2*
X928920D1*
X1126581D2*
X1286996D1*
X1351429D2*
X1640127D1*
X524058Y957402D2*
X734016D1*
X809921D2*
X927852D1*
X1123559D2*
X1284904D1*
X1353521D2*
X1641927D1*
X521858Y953596D2*
X734169D1*
X809768D2*
X927198D1*
X1119891D2*
X1283344D1*
X1355081D2*
X1644126D1*
X519190Y949790D2*
X734715D1*
X809222D2*
X926937D1*
X1115362D2*
X1282244D1*
X1356181D2*
X1646794D1*
X515953Y945984D2*
X735669D1*
X808268D2*
X927059D1*
X1109526D2*
X1281559D1*
X1356866D2*
X1650031D1*
X511986Y942178D2*
X737068D1*
X806869D2*
X927583D1*
X1115224D2*
X1281268D1*
X1357157D2*
X1653999D1*
X506987Y938373D2*
X738967D1*
X804970D2*
X928505D1*
X1119707D2*
X1206533D1*
X1235042D2*
X1281367D1*
X1357058D2*
X1658997D1*
X500274Y934567D2*
X741459D1*
X802478D2*
X929866D1*
X1123052D2*
X1199336D1*
X1242239D2*
X1281860D1*
X1356566D2*
X1665710D1*
X493946Y930761D2*
X744711D1*
X799226D2*
X931727D1*
X1125613D2*
X1194592D1*
X1246983D2*
X1282759D1*
X1355667D2*
X1672038D1*
X502858Y926955D2*
X749049D1*
X794888D2*
X934180D1*
X1127566D2*
X1191085D1*
X1250490D2*
X1284089D1*
X1354336D2*
X1663126D1*
X508856Y923150D2*
X755315D1*
X788622D2*
X937371D1*
X1129012D2*
X1188409D1*
X1253165D2*
X1285912D1*
X1352513D2*
X1657129D1*
X513446Y919344D2*
X941615D1*
X1130010D2*
X1186356D1*
X1255219D2*
X1288319D1*
X1350106D2*
X1652538D1*
X517138Y915538D2*
X947698D1*
X1130596D2*
X1184825D1*
X1256749D2*
X1291449D1*
X1346976D2*
X1648846D1*
X520167Y911732D2*
X954957D1*
X1130787D2*
X1183757D1*
X1257818D2*
X1295608D1*
X1342818D2*
X1579196D1*
X1602537D2*
X1645818D1*
X522665Y907927D2*
X955765D1*
X1130596D2*
X1183104D1*
X1258471D2*
X1301513D1*
X1336912D2*
X1570845D1*
X1610887D2*
X1643319D1*
X524719Y904121D2*
X957003D1*
X1130010D2*
X1182843D1*
X1258732D2*
X1313217D1*
X1325209D2*
X1565685D1*
X526387Y900315D2*
X958724D1*
X1129012D2*
X1182965D1*
X1276811D2*
X1561925D1*
X527710Y896509D2*
X779214D1*
X811967D2*
X830395D1*
X863148D2*
X960993D1*
X1127566D2*
X1172915D1*
X1283077D2*
X1559072D1*
X528718Y892703D2*
X772848D1*
X818333D2*
X824029D1*
X869514D2*
X963962D1*
X1125613D2*
X1166549D1*
X1287415D2*
X1556881D1*
X529417Y888898D2*
X768457D1*
X938350D2*
X963301D1*
X1123052D2*
X1162157D1*
X1290667D2*
X1555235D1*
X529832Y885092D2*
X765181D1*
X945925D2*
X961424D1*
X1119707D2*
X1158882D1*
X1293159D2*
X1554051D1*
X529963Y881286D2*
X762659D1*
X950269D2*
X960039D1*
X1116077D2*
X1156360D1*
X1295058D2*
X1553298D1*
X529810Y877480D2*
X760744D1*
X954076D2*
X959102D1*
X1113794D2*
X1154445D1*
X1296457D2*
X1552944D1*
X529379Y873675D2*
X759329D1*
X1110510D2*
X1153030D1*
X1297411D2*
X1552983D1*
X528656Y869869D2*
X758361D1*
X1106705D2*
X1152062D1*
X1297957D2*
X1553406D1*
X527634Y866063D2*
X757807D1*
X1102898D2*
X1151508D1*
X1300140D2*
X1554228D1*
X526287Y862257D2*
X757638D1*
X1099092D2*
X1151339D1*
X1303946D2*
X1555482D1*
X524596Y858451D2*
X757861D1*
X1095285D2*
X1151562D1*
X1307753D2*
X1557211D1*
X522504Y854646D2*
X758476D1*
X1091479D2*
X1152177D1*
X1311559D2*
X1559510D1*
X519975Y850840D2*
X759499D1*
X1087673D2*
X1153199D1*
X1315366D2*
X1562503D1*
X423941Y847034D2*
X428605D1*
X516907D2*
X760983D1*
X1083866D2*
X1153307D1*
X1319172D2*
X1566446D1*
X1737379D2*
X1742051D1*
X423941Y843228D2*
X432350D1*
X513161D2*
X762974D1*
X1080060D2*
X1153307D1*
X1322978D2*
X1571953D1*
X1609780D2*
X1652823D1*
X1733634D2*
X1742051D1*
X423941Y839423D2*
X437017D1*
X508495D2*
X765581D1*
X1076253D2*
X1153307D1*
X1326785D2*
X1581549D1*
X1600184D2*
X1657490D1*
X1728967D2*
X1742051D1*
X423941Y835617D2*
X443138D1*
X502374D2*
X768987D1*
X1072455D2*
X1153307D1*
X1330591D2*
X1663610D1*
X1722846D2*
X1742051D1*
X423941Y831811D2*
X452412D1*
X493100D2*
X773571D1*
X1068650D2*
X1153307D1*
X1334398D2*
X1672885D1*
X1713572D2*
X1742051D1*
X423941Y828005D2*
X778707D1*
X1064843D2*
X1153307D1*
X1338203D2*
X1742051D1*
X423941Y824199D2*
X782505D1*
X1061037D2*
X1153307D1*
X1342001D2*
X1742051D1*
X423941Y820394D2*
X786311D1*
X1057230D2*
X1153307D1*
X1345808D2*
X1742051D1*
X423941Y816588D2*
X790118D1*
X1053424D2*
X1153307D1*
X1349614D2*
X1742051D1*
X423941Y812782D2*
X793924D1*
X1049618D2*
X1153307D1*
X1353421D2*
X1483161D1*
X1509594D2*
X1742051D1*
X423941Y808976D2*
X797731D1*
X1045811D2*
X1153307D1*
X1357227D2*
X1475518D1*
X1517238D2*
X1742051D1*
X423941Y805171D2*
X801537D1*
X1042005D2*
X1153307D1*
X1361033D2*
X1470605D1*
X1522151D2*
X1742051D1*
X423941Y801365D2*
X805343D1*
X1038198D2*
X1153307D1*
X1364840D2*
X1466999D1*
X1525757D2*
X1742051D1*
X423941Y797559D2*
X809150D1*
X1034392D2*
X1153307D1*
X1368646D2*
X1464245D1*
X1528510D2*
X1742051D1*
X423941Y793753D2*
X812955D1*
X1030587D2*
X1153307D1*
X1372453D2*
X1462131D1*
X1530625D2*
X1742051D1*
X423941Y789948D2*
X816762D1*
X1026780D2*
X1153307D1*
X1376259D2*
X1460555D1*
X1532201D2*
X1742051D1*
X423941Y786142D2*
X821222D1*
X1022320D2*
X1153307D1*
X1380064D2*
X1459440D1*
X1533316D2*
X1742051D1*
X423941Y782336D2*
X829281D1*
X1014261D2*
X1153307D1*
X1383871D2*
X1458740D1*
X1534016D2*
X1742051D1*
X423941Y778530D2*
X1153307D1*
X1387677D2*
X1457841D1*
X1534315D2*
X1742051D1*
X423941Y774724D2*
X1153307D1*
X1391484D2*
X1454034D1*
X1534231D2*
X1742051D1*
X423941Y770919D2*
X1153307D1*
X1395290D2*
X1450228D1*
X1533755D2*
X1742051D1*
X423941Y767113D2*
X1153307D1*
X1421034D2*
X1446421D1*
X1532870D2*
X1742051D1*
X423941Y763307D2*
X713761D1*
X743562D2*
X1153307D1*
X1427846D2*
X1442615D1*
X1531555D2*
X1742051D1*
X423941Y759501D2*
X706833D1*
X750490D2*
X1153307D1*
X1432430D2*
X1438810D1*
X1529748D2*
X1742051D1*
X423941Y755696D2*
X702197D1*
X900526D2*
X1151408D1*
X1527365D2*
X1742051D1*
X423941Y751890D2*
X698752D1*
X909530D2*
X1148801D1*
X1524265D2*
X1742051D1*
X423941Y748084D2*
X696122D1*
X914182D2*
X1006923D1*
X1520151D2*
X1742051D1*
X423941Y744278D2*
X694108D1*
X917990D2*
X997018D1*
X1514331D2*
X1742051D1*
X423941Y740472D2*
X692615D1*
X921795D2*
X992220D1*
X1503181D2*
X1742051D1*
X423941Y736667D2*
X691570D1*
X925602D2*
X988413D1*
X1495154D2*
X1742051D1*
X423941Y732861D2*
X685088D1*
X929408D2*
X984608D1*
X1491346D2*
X1742051D1*
X423941Y729055D2*
X676929D1*
X933214D2*
X972896D1*
X1487541D2*
X1742051D1*
X423941Y725249D2*
X671831D1*
X937021D2*
X964546D1*
X1483734D2*
X1742051D1*
X423941Y721444D2*
X668117D1*
X940827D2*
X959386D1*
X1479936D2*
X1742051D1*
X423941Y717638D2*
X665280D1*
X944634D2*
X955626D1*
X1476130D2*
X1485415D1*
X1515215D2*
X1742051D1*
X423941Y713832D2*
X663112D1*
X948440D2*
X952773D1*
X1472323D2*
X1478487D1*
X1522143D2*
X1742051D1*
X423941Y710026D2*
X661480D1*
X1468517D2*
X1473850D1*
X1526780D2*
X1742051D1*
X423941Y706220D2*
X660320D1*
X1464710D2*
X1470406D1*
X1530224D2*
X1742051D1*
X423941Y702415D2*
X659581D1*
X1532854D2*
X1742051D1*
X423941Y698609D2*
X651169D1*
X1534869D2*
X1742051D1*
X423941Y694803D2*
X645509D1*
X1536361D2*
X1742051D1*
X423941Y690997D2*
X641480D1*
X1537407D2*
X1742051D1*
X423941Y687192D2*
X547293D1*
X571448D2*
X638428D1*
X1538029D2*
X1742051D1*
X423941Y683386D2*
X539134D1*
X579606D2*
X636098D1*
X1538268D2*
X1742051D1*
X423941Y679580D2*
X534035D1*
X584705D2*
X634322D1*
X1538114D2*
X1742051D1*
X423941Y675774D2*
X530322D1*
X588419D2*
X633038D1*
X1537568D2*
X1742051D1*
X423941Y671969D2*
X527484D1*
X591256D2*
X632184D1*
X1536614D2*
X1742051D1*
X423941Y668163D2*
X525316D1*
X593424D2*
X631738D1*
X1535215D2*
X1742051D1*
X423941Y664357D2*
X523685D1*
X595055D2*
X631676D1*
X1533316D2*
X1742051D1*
X423941Y660551D2*
X522525D1*
X596215D2*
X632007D1*
X1530824D2*
X1742051D1*
X423941Y656745D2*
X521786D1*
X599276D2*
X632730D1*
X1527572D2*
X1742051D1*
X423941Y652940D2*
X521448D1*
X603083D2*
X633875D1*
X1523235D2*
X1742051D1*
X423941Y649134D2*
X521493D1*
X606888D2*
X635491D1*
X1062744D2*
X1115051D1*
X1516969D2*
X1742051D1*
X423941Y645328D2*
X521925D1*
X610696D2*
X637635D1*
X1058937D2*
X1118858D1*
X1502243D2*
X1742051D1*
X423941Y641522D2*
X522762D1*
X614501D2*
X640442D1*
X1055131D2*
X1122664D1*
X1498437D2*
X1742051D1*
X423941Y637717D2*
X524039D1*
X618307D2*
X644126D1*
X695087D2*
X818576D1*
X1051324D2*
X1126471D1*
X1494630D2*
X1742051D1*
X423941Y633911D2*
X525785D1*
X622114D2*
X649163D1*
X690050D2*
X821329D1*
X1047518D2*
X1130277D1*
X1490824D2*
X1742051D1*
X423941Y630105D2*
X528108D1*
X625920D2*
X657136D1*
X682076D2*
X824936D1*
X1043713D2*
X1134083D1*
X1487017D2*
X1742051D1*
X423941Y626299D2*
X531121D1*
X629727D2*
X829849D1*
X1039906D2*
X1137890D1*
X1483211D2*
X1742051D1*
X423941Y622493D2*
X535112D1*
X633533D2*
X837492D1*
X1036100D2*
X1142688D1*
X1479406D2*
X1742051D1*
X423941Y618688D2*
X540694D1*
X637339D2*
X850227D1*
X1032293D2*
X1152592D1*
X1475491D2*
X1742051D1*
X423941Y614882D2*
X550606D1*
X641146D2*
X854033D1*
X1028487D2*
X1242304D1*
X1469770D2*
X1742051D1*
X423941Y611076D2*
X554629D1*
X644951D2*
X857839D1*
X1024681D2*
X1257122D1*
X1349807D2*
X1742051D1*
X423941Y607270D2*
X558434D1*
X648757D2*
X861646D1*
X1020874D2*
X1262629D1*
X1344301D2*
X1742051D1*
X423941Y603465D2*
X562240D1*
X652564D2*
X865451D1*
X1017068D2*
X1742051D1*
X423941Y599659D2*
X566047D1*
X656362D2*
X869259D1*
X1013261D2*
X1742051D1*
X423941Y595853D2*
X569853D1*
X660169D2*
X873602D1*
X1008917D2*
X1742051D1*
X423941Y592047D2*
X573659D1*
X663975D2*
X881177D1*
X1001343D2*
X1742051D1*
X423941Y588241D2*
X577466D1*
X667782D2*
X1742051D1*
X423941Y584436D2*
X581272D1*
X671588D2*
X1742051D1*
X423941Y580630D2*
X585079D1*
X675394D2*
X1742051D1*
X423941Y576824D2*
X588885D1*
X679201D2*
X1742051D1*
X423941Y573018D2*
X592690D1*
X683007D2*
X1742051D1*
X423941Y569213D2*
X596497D1*
X686814D2*
X1742051D1*
X423941Y565407D2*
X600303D1*
X690619D2*
X1742051D1*
X423941Y561601D2*
X604110D1*
X694425D2*
X737545D1*
X759148D2*
X1036757D1*
X1058361D2*
X1446206D1*
X1467810D2*
X1742051D1*
X423941Y557795D2*
X607908D1*
X698232D2*
X728756D1*
X767937D2*
X1027969D1*
X1067150D2*
X1437417D1*
X1476598D2*
X1742051D1*
X423941Y553990D2*
X611715D1*
X1072440D2*
X1194761D1*
X1481888D2*
X1742051D1*
X423941Y550184D2*
X615521D1*
X1076269D2*
X1188756D1*
X1485718D2*
X1742051D1*
X423941Y546378D2*
X619327D1*
X1079184D2*
X1184680D1*
X1488633D2*
X1742051D1*
X423941Y542572D2*
X623134D1*
X1081413D2*
X1180882D1*
X1490862D2*
X1742051D1*
X423941Y538766D2*
X626940D1*
X1083097D2*
X1177075D1*
X1492546D2*
X1742051D1*
X423941Y534961D2*
X630745D1*
X1084304D2*
X1173269D1*
X1493753D2*
X1742051D1*
X423941Y531155D2*
X634552D1*
X1085089D2*
X1169462D1*
X1494538D2*
X1742051D1*
X423941Y527349D2*
X638358D1*
X1085466D2*
X1165656D1*
X1494915D2*
X1742051D1*
X423941Y523543D2*
X642165D1*
X1085458D2*
X1161850D1*
X1494907D2*
X1742051D1*
X423941Y519738D2*
X645971D1*
X1085066D2*
X1152423D1*
X1494514D2*
X1742051D1*
X423941Y515932D2*
X649777D1*
X1084266D2*
X1146340D1*
X1493715D2*
X1742051D1*
X423941Y512126D2*
X653584D1*
X1083043D2*
X1142096D1*
X1492492D2*
X1742051D1*
X423941Y508320D2*
X657390D1*
X1081344D2*
X1138904D1*
X1490793D2*
X1742051D1*
X423941Y504514D2*
X661197D1*
X1079092D2*
X1136451D1*
X1488541D2*
X1742051D1*
X423941Y500709D2*
X665295D1*
X1076154D2*
X1134591D1*
X1485602D2*
X1742051D1*
X423941Y496903D2*
X671416D1*
X1072286D2*
X1133230D1*
X1481735D2*
X1742051D1*
X424102Y493097D2*
X728979D1*
X767714D2*
X1028192D1*
X1066927D2*
X1132307D1*
X1221723D2*
X1437640D1*
X1476375D2*
X1741882D1*
X424610Y489291D2*
X738014D1*
X758678D2*
X1037227D1*
X1057891D2*
X1131783D1*
X1217917D2*
X1446676D1*
X1467340D2*
X1741382D1*
X425110Y485486D2*
X1131661D1*
X1214110D2*
X1740874D1*
X425609Y481680D2*
X1131923D1*
X1210304D2*
X1740375D1*
X426109Y477874D2*
X1132576D1*
X1206636D2*
X1739875D1*
X426786Y474068D2*
X1133644D1*
X1205568D2*
X1739206D1*
X428362Y470262D2*
X1135175D1*
X1204038D2*
X1737630D1*
X429938Y466457D2*
X1137228D1*
X1201984D2*
X1736054D1*
X431514Y462651D2*
X1139904D1*
X1199308D2*
X1734476D1*
X433092Y458845D2*
X1143411D1*
X1195802D2*
X1732900D1*
X435752Y455039D2*
X1148155D1*
X1191058D2*
X1730232D1*
X438673Y451234D2*
X1155352D1*
X1183861D2*
X1727311D1*
X441596Y447428D2*
X1724396D1*
X444664Y443622D2*
X1721320D1*
X449623Y439816D2*
X1716361D1*
X454584Y436010D2*
X1711400D1*
X460420Y432205D2*
X1705564D1*
X469609Y428399D2*
X1696375D1*
X486794Y424593D2*
X1679190D1*
X529530Y1179449D2*
X529231Y1175525D1*
X528635Y1171634D1*
X527745Y1167799D1*
X526567Y1164045D1*
X525108Y1160388D1*
X523374Y1156854D1*
X521378Y1153462D1*
X519130Y1150231D1*
X516643Y1147181D1*
X513932Y1144327D1*
X511012Y1141688D1*
X507900Y1139278D1*
X504614Y1137112D1*
X501173Y1135201D1*
X497597Y1133556D1*
X493906Y1132188D1*
X491319Y1131423D1*
X495073Y1130248D1*
X498731Y1128793D1*
X502266Y1127064D1*
X505661Y1125072D1*
X508895Y1122827D1*
X511949Y1120344D1*
X514804Y1117635D1*
X517448Y1114719D1*
X519861Y1111609D1*
X522031Y1108325D1*
X523946Y1104887D1*
X525594Y1101312D1*
X526967Y1097623D1*
X528055Y1093841D1*
X528853Y1089987D1*
X529357Y1086083D1*
X529562Y1082152D1*
X529530Y1079449D1*
X529231Y1075525D1*
X528635Y1071634D1*
X527745Y1067799D1*
X526567Y1064045D1*
X525108Y1060388D1*
X523374Y1056854D1*
X521378Y1053462D1*
X519130Y1050231D1*
X516643Y1047181D1*
X513932Y1044327D1*
X511012Y1041688D1*
X507900Y1039278D1*
X504614Y1037112D1*
X501173Y1035201D1*
X497597Y1033556D1*
X493906Y1032188D1*
X491319Y1031423D1*
X495073Y1030248D1*
X498731Y1028793D1*
X502266Y1027064D1*
X505661Y1025072D1*
X508895Y1022827D1*
X511949Y1020344D1*
X514804Y1017635D1*
X517448Y1014719D1*
X519861Y1011609D1*
X522031Y1008325D1*
X523946Y1004887D1*
X525594Y1001312D1*
X526967Y997623D1*
X528055Y993841D1*
X528853Y989987D1*
X529357Y986083D1*
X529562Y982152D1*
X529530Y979449D1*
X529231Y975525D1*
X528635Y971634D1*
X527745Y967799D1*
X526567Y964045D1*
X525108Y960388D1*
X523374Y956854D1*
X521378Y953462D1*
X519130Y950231D1*
X516643Y947181D1*
X513932Y944327D1*
X511012Y941688D1*
X507900Y939278D1*
X504614Y937112D1*
X501173Y935201D1*
X497597Y933556D1*
X493906Y932188D1*
X491319Y931423D1*
X495073Y930248D1*
X498731Y928793D1*
X502266Y927064D1*
X505661Y925072D1*
X508895Y922827D1*
X511949Y920344D1*
X514804Y917635D1*
X517448Y914719D1*
X519861Y911609D1*
X522031Y908325D1*
X523946Y904887D1*
X525594Y901312D1*
X526967Y897623D1*
X528055Y893841D1*
X528853Y889987D1*
X529357Y886083D1*
X529562Y882152D1*
X529530Y879449D1*
X529231Y875525D1*
X528635Y871634D1*
X527745Y867799D1*
X526567Y864045D1*
X525108Y860388D1*
X523374Y856854D1*
X521378Y853462D1*
X519130Y850231D1*
X516643Y847181D1*
X513932Y844327D1*
X511012Y841688D1*
X507900Y839278D1*
X504614Y837112D1*
X501173Y835201D1*
X497597Y833556D1*
X493906Y832188D1*
X490122Y831104D1*
X486268Y830310D1*
X482362Y829811D1*
X478432Y829610D1*
X466463Y829622D1*
X462535Y829870D1*
X458636Y830415D1*
X454791Y831255D1*
X451021Y832383D1*
X447346Y833795D1*
X443790Y835482D1*
X440373Y837434D1*
X437113Y839640D1*
X434029Y842087D1*
X431140Y844760D1*
X428463Y847646D1*
X426013Y850726D1*
X423804Y853984D1*
X423547Y854412D1*
X423543Y494374D1*
X426138Y474673D1*
X432996Y458117D1*
X443903Y443906D1*
X458118Y432996D1*
X474673Y426136D1*
X494377Y423543D1*
X1671609D1*
X1691311Y426138D1*
X1707866Y432996D1*
X1722080Y443902D1*
X1732988Y458117D1*
X1739848Y474672D1*
X1742442Y494377D1*
Y854413D1*
X1740757Y851825D1*
X1738388Y848682D1*
X1735787Y845728D1*
X1732970Y842980D1*
X1729951Y840454D1*
X1726749Y838164D1*
X1723385Y836123D1*
X1719873Y834344D1*
X1716238Y832837D1*
X1712497Y831610D1*
X1708675Y830671D1*
X1704793Y830024D1*
X1700871Y829673D1*
X1698228Y829606D1*
X1686936Y829622D1*
X1683008Y829870D1*
X1679109Y830415D1*
X1675264Y831255D1*
X1671493Y832383D1*
X1667819Y833795D1*
X1664262Y835482D1*
X1660845Y837434D1*
X1657585Y839640D1*
X1654501Y842087D1*
X1652140Y844255D1*
X1611091Y844252D1*
X1607882Y842421D1*
X1606104Y841576D1*
X1604285Y840825D1*
X1602429Y840171D1*
X1600541Y839614D1*
X1598626Y839157D1*
X1596690Y838801D1*
X1594739Y838547D1*
X1592777Y838395D1*
X1590808Y838346D1*
X1588841Y838402D1*
X1586879Y838559D1*
X1584928Y838819D1*
X1582993Y839181D1*
X1581080Y839643D1*
X1579194Y840206D1*
X1577340Y840866D1*
X1575524Y841623D1*
X1573748Y842474D1*
X1572020Y843417D1*
X1570344Y844449D1*
X1568724Y845567D1*
X1567165Y846769D1*
X1565672Y848050D1*
X1564247Y849408D1*
X1562895Y850839D1*
X1561621Y852339D1*
X1560427Y853903D1*
X1559315Y855528D1*
X1558291Y857209D1*
X1557357Y858941D1*
X1556514Y860720D1*
X1555765Y862541D1*
X1555113Y864398D1*
X1554560Y866286D1*
X1554106Y868202D1*
X1553752Y870138D1*
X1553501Y872091D1*
X1553353Y874052D1*
X1553307Y876021D1*
X1553365Y877988D1*
X1553525Y879950D1*
X1553789Y881900D1*
X1554154Y883835D1*
X1554619Y885747D1*
X1555185Y887633D1*
X1555848Y889486D1*
X1556608Y891301D1*
X1557461Y893075D1*
X1558407Y894801D1*
X1559441Y896475D1*
X1560562Y898093D1*
X1561765Y899651D1*
X1563050Y901143D1*
X1564409Y902566D1*
X1565843Y903915D1*
X1567344Y905188D1*
X1568911Y906379D1*
X1570537Y907487D1*
X1572219Y908509D1*
X1573953Y909441D1*
X1575734Y910281D1*
X1577555Y911026D1*
X1579413Y911676D1*
X1581303Y912227D1*
X1583218Y912677D1*
X1585155Y913028D1*
X1587108Y913276D1*
X1589071Y913421D1*
X1591038Y913465D1*
X1593007Y913404D1*
X1594967Y913240D1*
X1596917Y912974D1*
X1598852Y912606D1*
X1600762Y912138D1*
X1602647Y911570D1*
X1604500Y910903D1*
X1606314Y910140D1*
X1608087Y909285D1*
X1611059Y907563D1*
X1643500Y907559D1*
X1644942Y909890D1*
X1647228Y913093D1*
X1649751Y916114D1*
X1652496Y918936D1*
X1655448Y921539D1*
X1658588Y923912D1*
X1661899Y926039D1*
X1665364Y927909D1*
X1668958Y929512D1*
X1672665Y930836D1*
X1674651Y931416D1*
X1671493Y932383D1*
X1667819Y933795D1*
X1664262Y935482D1*
X1660845Y937434D1*
X1657585Y939640D1*
X1654501Y942087D1*
X1651613Y944760D1*
X1648936Y947646D1*
X1646486Y950726D1*
X1644277Y953984D1*
X1642320Y957399D1*
X1640630Y960954D1*
X1639214Y964626D1*
X1638080Y968395D1*
X1637236Y972240D1*
X1636688Y976138D1*
X1636434Y980066D1*
X1636482Y984001D1*
X1636827Y987923D1*
X1637470Y991806D1*
X1638404Y995629D1*
X1639627Y999370D1*
X1641130Y1003008D1*
X1642906Y1006521D1*
X1644942Y1009890D1*
X1647228Y1013093D1*
X1649751Y1016114D1*
X1652496Y1018936D1*
X1655448Y1021539D1*
X1658588Y1023912D1*
X1661899Y1026039D1*
X1665364Y1027909D1*
X1668958Y1029512D1*
X1672665Y1030836D1*
X1674651Y1031416D1*
X1671493Y1032383D1*
X1667819Y1033795D1*
X1664262Y1035482D1*
X1660845Y1037434D1*
X1657585Y1039640D1*
X1654501Y1042087D1*
X1651613Y1044760D1*
X1648936Y1047646D1*
X1646486Y1050726D1*
X1644277Y1053984D1*
X1642320Y1057399D1*
X1640630Y1060954D1*
X1639214Y1064626D1*
X1638080Y1068395D1*
X1637236Y1072240D1*
X1636688Y1076138D1*
X1636434Y1080066D1*
X1636482Y1084001D1*
X1636827Y1087923D1*
X1637470Y1091806D1*
X1638404Y1095629D1*
X1639627Y1099370D1*
X1641130Y1103008D1*
X1642906Y1106521D1*
X1644942Y1109890D1*
X1647228Y1113093D1*
X1649751Y1116114D1*
X1652496Y1118936D1*
X1655448Y1121539D1*
X1658588Y1123912D1*
X1661899Y1126039D1*
X1665364Y1127909D1*
X1668958Y1129512D1*
X1672665Y1130836D1*
X1674651Y1131416D1*
X1671493Y1132383D1*
X1667819Y1133795D1*
X1664262Y1135482D1*
X1660845Y1137434D1*
X1657585Y1139640D1*
X1654501Y1142087D1*
X1651613Y1144760D1*
X1648936Y1147646D1*
X1646486Y1150726D1*
X1644277Y1153984D1*
X1642320Y1157399D1*
X1640630Y1160954D1*
X1639214Y1164626D1*
X1638080Y1168395D1*
X1637236Y1172240D1*
X1636688Y1176138D1*
X1636434Y1180066D1*
X1636482Y1184001D1*
X1636827Y1187923D1*
X1637470Y1191806D1*
X1638404Y1195629D1*
X1639627Y1199370D1*
X1641130Y1203008D1*
X1642906Y1206521D1*
X1644942Y1209890D1*
X1647228Y1213093D1*
X1649751Y1216114D1*
X1652496Y1218936D1*
X1655448Y1221539D1*
X1658588Y1223912D1*
X1661899Y1226039D1*
X1665364Y1227909D1*
X1668958Y1229512D1*
X1672665Y1230836D1*
X1674651Y1231416D1*
X1671493Y1232383D1*
X1667819Y1233795D1*
X1664262Y1235482D1*
X1660845Y1237434D1*
X1657585Y1239640D1*
X1654501Y1242087D1*
X1651613Y1244760D1*
X1648936Y1247646D1*
X1646486Y1250726D1*
X1644277Y1253984D1*
X1642320Y1257399D1*
X1640630Y1260954D1*
X1639214Y1264626D1*
X1638080Y1268395D1*
X1637236Y1272240D1*
X1636688Y1276138D1*
X1636434Y1280066D1*
X1636482Y1284001D1*
X1636827Y1287923D1*
X1637470Y1291806D1*
X1638404Y1295629D1*
X1639627Y1299370D1*
X1641130Y1303008D1*
X1642906Y1306521D1*
X1644942Y1309890D1*
X1647228Y1313093D1*
X1649751Y1316114D1*
X1652496Y1318936D1*
X1655448Y1321539D1*
X1658588Y1323912D1*
X1661899Y1326039D1*
X1665364Y1327909D1*
X1668958Y1329512D1*
X1672665Y1330836D1*
X1676462Y1331874D1*
X1680325Y1332622D1*
X1684236Y1333075D1*
X1688223Y1333227D1*
X1700138Y1333193D1*
X1704062Y1332899D1*
X1707954Y1332307D1*
X1711789Y1331423D1*
X1715546Y1330248D1*
X1719203Y1328793D1*
X1722739Y1327064D1*
X1726134Y1325072D1*
X1729367Y1322827D1*
X1732421Y1320344D1*
X1735277Y1317635D1*
X1737920Y1314719D1*
X1740333Y1311609D1*
X1742442Y1308424D1*
X1742441Y1400597D1*
X1722833Y1390651D1*
X1720777Y1389983D1*
X1715828Y1389156D1*
X1694310Y1385790D1*
X1692147D1*
X1687184Y1386534D1*
X1665680Y1389983D1*
X1663623Y1390651D1*
X1659133Y1392891D1*
X1639747Y1402816D1*
X1637997Y1404088D1*
X1634419Y1407606D1*
X1619049Y1423037D1*
X1617777Y1424786D1*
X1615461Y1429238D1*
X1605612Y1448663D1*
X1604944Y1450719D1*
X1604115Y1455668D1*
X1600751Y1477186D1*
Y1479349D1*
X1601493Y1484312D1*
X1604944Y1505816D1*
X1605612Y1507873D1*
X1607852Y1512364D1*
X1616555Y1529444D1*
X1606064Y1550042D1*
X1605236Y1552039D1*
X1604732Y1554142D1*
X1600751Y1579549D1*
Y1581711D1*
X1601495Y1586675D1*
X1604944Y1608178D1*
X1605612Y1610235D1*
X1607852Y1614726D1*
X1617777Y1634112D1*
X1619049Y1635861D1*
X1622567Y1639440D1*
X1637997Y1654810D1*
X1639747Y1656081D1*
X1644198Y1658398D1*
X1663623Y1668247D1*
X1665680Y1668915D1*
X1670629Y1669741D1*
X1692147Y1673108D1*
X1694310D1*
X1699273Y1672364D1*
X1720777Y1668915D1*
X1722833Y1668247D1*
X1727324Y1666007D1*
X1742445Y1658302D1*
X1742441Y1868459D1*
X1739846Y1888161D1*
X1732991Y1904713D1*
X1722083Y1918928D1*
X1707867Y1929837D1*
X1691312Y1936696D1*
X1671609Y1939290D1*
X494375Y1939291D1*
X474673Y1936697D1*
X458117Y1929840D1*
X443906Y1918933D1*
X432993Y1904713D1*
X426139Y1888161D1*
X423545Y1868457D1*
Y1662240D1*
X443151Y1672184D1*
X445207Y1672852D1*
X450156Y1673678D1*
X471675Y1677045D1*
X473837D1*
X478801Y1676301D1*
X500304Y1672852D1*
X502361Y1672184D1*
X506852Y1669944D1*
X526238Y1660018D1*
X527987Y1658747D1*
X531566Y1655228D1*
X546936Y1639798D1*
X548207Y1638049D1*
X550524Y1633597D1*
X560373Y1614172D1*
X561041Y1612115D1*
X561869Y1607167D1*
X565234Y1585648D1*
Y1583486D1*
X564491Y1578522D1*
X561041Y1557018D1*
X560373Y1554962D1*
X558133Y1550471D1*
X548734Y1532025D1*
X548736Y1530806D1*
X560373Y1507873D1*
X561041Y1505816D1*
X561867Y1500867D1*
X565234Y1479349D1*
Y1477186D1*
X564490Y1472223D1*
X561041Y1450719D1*
X560373Y1448663D1*
X558133Y1444172D1*
X548207Y1424786D1*
X546936Y1423037D1*
X543417Y1419458D1*
X527987Y1404088D1*
X526238Y1402816D1*
X521786Y1400500D1*
X502361Y1390651D1*
X500304Y1389983D1*
X495356Y1389155D1*
X473837Y1385790D1*
X471675D1*
X466711Y1386533D1*
X445207Y1389983D1*
X443151Y1390651D1*
X438660Y1392891D1*
X423539Y1400596D1*
X423545Y1308432D1*
X425583Y1311513D1*
X427988Y1314627D1*
X430625Y1317551D1*
X433475Y1320265D1*
X436522Y1322756D1*
X439751Y1325008D1*
X443142Y1327008D1*
X446673Y1328745D1*
X450327Y1330209D1*
X454081Y1331391D1*
X457915Y1332285D1*
X461804Y1332886D1*
X465728Y1333189D1*
X473661Y1333228D1*
X479665Y1333193D1*
X483589Y1332899D1*
X487482Y1332307D1*
X491316Y1331423D1*
X495073Y1330248D1*
X498731Y1328793D1*
X502266Y1327064D1*
X505661Y1325072D1*
X508895Y1322827D1*
X511949Y1320344D1*
X514804Y1317635D1*
X517448Y1314719D1*
X519861Y1311609D1*
X522031Y1308325D1*
X523946Y1304887D1*
X525594Y1301312D1*
X526967Y1297623D1*
X528055Y1293841D1*
X528853Y1289987D1*
X529357Y1286083D1*
X529562Y1282152D1*
X529530Y1279449D1*
X529231Y1275525D1*
X528635Y1271634D1*
X527745Y1267799D1*
X526567Y1264045D1*
X525108Y1260388D1*
X523374Y1256854D1*
X521378Y1253462D1*
X519130Y1250231D1*
X516643Y1247181D1*
X513932Y1244327D1*
X511012Y1241688D1*
X507900Y1239278D1*
X504614Y1237112D1*
X501173Y1235201D1*
X497597Y1233556D1*
X493906Y1232188D1*
X491319Y1231423D1*
X495073Y1230248D1*
X498731Y1228793D1*
X502266Y1227064D1*
X505661Y1225072D1*
X508895Y1222827D1*
X511949Y1220344D1*
X514804Y1217635D1*
X517448Y1214719D1*
X519861Y1211609D1*
X522031Y1208325D1*
X523946Y1204887D1*
X525594Y1201312D1*
X526967Y1197623D1*
X528055Y1193841D1*
X528853Y1189987D1*
X529357Y1186083D1*
X529562Y1182152D1*
X529530Y1179449D1*
X1136262Y1699134D2*
X1135972Y1695209D1*
X1135394Y1691316D1*
X1134528Y1687476D1*
X1133382Y1683710D1*
X1131962Y1680039D1*
X1130274Y1676483D1*
X1128328Y1673062D1*
X1126135Y1669793D1*
X1123707Y1666694D1*
X1121058Y1663785D1*
X1118201Y1661077D1*
X1115151Y1658588D1*
X1111927Y1656331D1*
X1108545Y1654319D1*
X1105022Y1652560D1*
X1101381Y1651067D1*
X1097638Y1649846D1*
X1093816Y1648906D1*
X1089936Y1648249D1*
X1086017Y1647881D1*
X1082081Y1647803D1*
X1078151Y1648016D1*
X1074247Y1648517D1*
X1070391Y1649306D1*
X1066602Y1650377D1*
X1062904Y1651724D1*
X1059316Y1653341D1*
X1055856Y1655219D1*
X1052545Y1657346D1*
X1049399Y1659713D1*
X1046437Y1662304D1*
X1043673Y1665108D1*
X1041125Y1668106D1*
X1038803Y1671286D1*
X1036724Y1674627D1*
X1034896Y1678114D1*
X1033332Y1681726D1*
X1032037Y1685442D1*
X1031021Y1689245D1*
X1030287Y1693113D1*
X1029841Y1697024D1*
X1029685Y1700957D1*
X1029820Y1704890D1*
X1030244Y1708803D1*
X1030957Y1712675D1*
X1031951Y1716483D1*
X1033226Y1720206D1*
X1034772Y1723827D1*
X1036580Y1727323D1*
X1038640Y1730676D1*
X1040944Y1733867D1*
X1043476Y1736882D1*
X1046224Y1739699D1*
X1049172Y1742307D1*
X1050361Y1743247D1*
X1050354Y1800451D1*
X1119567D1*
Y1739882D1*
X1122213Y1737206D1*
X1124769Y1734213D1*
X1127098Y1731041D1*
X1129188Y1727705D1*
X1131024Y1724223D1*
X1132600Y1720615D1*
X1133904Y1716902D1*
X1134930Y1713102D1*
X1135675Y1709238D1*
X1136131Y1705328D1*
X1136299Y1701102D1*
X1136262Y1699134D1*
X1351509Y1314130D2*
X1350085Y1312364D1*
X1347436Y1309454D1*
X1344579Y1306747D1*
X1341529Y1304257D1*
X1338304Y1302000D1*
X1334923Y1299988D1*
X1331400Y1298230D1*
X1327759Y1296736D1*
X1324016Y1295516D1*
X1320194Y1294575D1*
X1316314Y1293919D1*
X1312395Y1293550D1*
X1308459Y1293472D1*
X1304529Y1293685D1*
X1300625Y1294186D1*
X1296769Y1294975D1*
X1292980Y1296046D1*
X1289282Y1297394D1*
X1285694Y1299010D1*
X1282234Y1300888D1*
X1278923Y1303016D1*
X1275777Y1305382D1*
X1272815Y1307974D1*
X1270051Y1310777D1*
X1267503Y1313776D1*
X1265181Y1316955D1*
X1263102Y1320297D1*
X1261274Y1323783D1*
X1259710Y1327395D1*
X1258415Y1331112D1*
X1257399Y1334915D1*
X1256665Y1338782D1*
X1256219Y1342693D1*
X1256063Y1346626D1*
X1256198Y1350559D1*
X1256622Y1354472D1*
X1257335Y1358344D1*
X1258329Y1362152D1*
X1259604Y1365875D1*
X1261150Y1369496D1*
X1262958Y1372992D1*
X1265018Y1376345D1*
X1267322Y1379537D1*
X1269854Y1382551D1*
X1272602Y1385369D1*
X1275550Y1387976D1*
X1278682Y1390360D1*
X1281983Y1392505D1*
X1285432Y1394402D1*
X1289012Y1396038D1*
X1292702Y1397406D1*
X1296484Y1398497D1*
X1300336Y1399307D1*
X1304238Y1399831D1*
X1308167Y1400066D1*
X1312102Y1400009D1*
X1316024Y1399661D1*
X1319908Y1399026D1*
X1323735Y1398106D1*
X1327483Y1396907D1*
X1331134Y1395434D1*
X1334665Y1393696D1*
X1338058Y1391701D1*
X1341295Y1389462D1*
X1344358Y1386990D1*
X1347231Y1384298D1*
X1348139Y1383348D1*
X1410688Y1383346D1*
Y1314134D1*
X1351517D1*
X1348138Y1487362D2*
X1346033Y1485239D1*
X1343076Y1482639D1*
X1339937Y1480265D1*
X1336631Y1478129D1*
X1333177Y1476241D1*
X1329593Y1474615D1*
X1325899Y1473257D1*
X1322114Y1472176D1*
X1318260Y1471377D1*
X1314357Y1470864D1*
X1310428Y1470640D1*
X1306492Y1470707D1*
X1302572Y1471066D1*
X1298689Y1471711D1*
X1294865Y1472642D1*
X1291119Y1473852D1*
X1287474Y1475335D1*
X1283946Y1477083D1*
X1280559Y1479087D1*
X1277328Y1481335D1*
X1274272Y1483815D1*
X1271407Y1486514D1*
X1268749Y1489417D1*
X1266312Y1492509D1*
X1264112Y1495772D1*
X1262156Y1499189D1*
X1260459Y1502740D1*
X1259028Y1506407D1*
X1257871Y1510169D1*
X1256996Y1514007D1*
X1256406Y1517898D1*
X1256105Y1521823D1*
X1256094Y1525759D1*
X1256374Y1529685D1*
X1256942Y1533580D1*
X1257797Y1537423D1*
X1258933Y1541190D1*
X1260343Y1544865D1*
X1262021Y1548427D1*
X1263957Y1551853D1*
X1266140Y1555127D1*
X1268560Y1558232D1*
X1271202Y1561151D1*
X1274052Y1563865D1*
X1277094Y1566362D1*
X1280312Y1568629D1*
X1283690Y1570651D1*
X1287207Y1572419D1*
X1290845Y1573921D1*
X1294583Y1575152D1*
X1298403Y1576104D1*
X1302282Y1576770D1*
X1306199Y1577150D1*
X1310135Y1577239D1*
X1314066Y1577037D1*
X1317971Y1576546D1*
X1321829Y1575768D1*
X1325619Y1574707D1*
X1329322Y1573370D1*
X1332915Y1571762D1*
X1336379Y1569895D1*
X1339697Y1567777D1*
X1342849Y1565419D1*
X1345819Y1562836D1*
X1348591Y1560041D1*
X1351147Y1557047D1*
X1351507Y1556577D1*
X1410688Y1556575D1*
Y1487362D1*
X1348150D1*
X1136262Y990472D2*
X1135972Y986547D1*
X1135394Y982655D1*
X1134528Y978815D1*
X1133382Y975049D1*
X1131962Y971378D1*
X1130274Y967822D1*
X1128328Y964400D1*
X1126135Y961131D1*
X1123707Y958033D1*
X1121058Y955123D1*
X1118201Y952416D1*
X1115151Y949927D1*
X1111927Y947669D1*
X1108724Y945760D1*
X1111780Y944163D1*
X1113453Y943126D1*
X1115070Y942003D1*
X1116625Y940797D1*
X1118114Y939510D1*
X1119535Y938148D1*
X1120882Y936713D1*
X1122152Y935209D1*
X1123341Y933642D1*
X1124448Y932013D1*
X1125467Y930329D1*
X1126396Y928594D1*
X1127234Y926812D1*
X1127976Y924990D1*
X1128622Y923131D1*
X1129171Y921240D1*
X1129618Y919324D1*
X1129966Y917386D1*
X1130211Y915433D1*
X1130394Y911732D1*
X1130343Y909765D1*
X1130188Y907802D1*
X1129930Y905852D1*
X1129571Y903916D1*
X1129112Y902003D1*
X1128552Y900115D1*
X1127894Y898260D1*
X1127140Y896442D1*
X1126293Y894665D1*
X1125352Y892936D1*
X1124323Y891259D1*
X1123207Y889636D1*
X1122008Y888076D1*
X1120728Y886580D1*
X1119373Y885154D1*
X1117944Y883801D1*
X1116172Y882312D1*
X1115227Y880403D1*
X1114228Y878707D1*
X1113110Y877088D1*
X1111882Y875551D1*
X1109072Y872631D1*
X1025819Y789378D1*
X1024379Y788037D1*
X1022848Y786801D1*
X1021231Y785677D1*
X1019541Y784671D1*
X1017782Y783786D1*
X1015965Y783029D1*
X1014100Y782403D1*
X1012194Y781911D1*
X1010259Y781555D1*
X1008302Y781339D1*
X1004252Y781260D1*
X837323D1*
X835356Y781329D1*
X833399Y781539D1*
X831462Y781887D1*
X829554Y782371D1*
X827686Y782990D1*
X825866Y783739D1*
X824104Y784615D1*
X822408Y785614D1*
X820789Y786732D1*
X819252Y787961D1*
X816332Y790770D1*
X777493Y829608D1*
X775068Y831063D1*
X773449Y832181D1*
X771890Y833383D1*
X770396Y834664D1*
X768971Y836022D1*
X767619Y837453D1*
X766345Y838953D1*
X765151Y840517D1*
X764039Y842142D1*
X763016Y843823D1*
X762081Y845555D1*
X761239Y847335D1*
X760490Y849155D1*
X759837Y851012D1*
X759285Y852900D1*
X758831Y854816D1*
X758476Y856752D1*
X758226Y858705D1*
X758077Y860667D1*
X758031Y862635D1*
X758089Y864602D1*
X758249Y866564D1*
X758513Y868514D1*
X758878Y870449D1*
X759344Y872361D1*
X759909Y874247D1*
X760572Y876100D1*
X761332Y877915D1*
X762185Y879689D1*
X763131Y881415D1*
X764165Y883089D1*
X765286Y884707D1*
X766490Y886265D1*
X767774Y887757D1*
X769134Y889180D1*
X770567Y890529D1*
X772068Y891802D1*
X773635Y892993D1*
X775261Y894101D1*
X776944Y895123D1*
X778677Y896055D1*
X780458Y896895D1*
X782280Y897640D1*
X784138Y898290D1*
X786028Y898841D1*
X787942Y899291D1*
X789879Y899642D1*
X791832Y899890D1*
X793795Y900035D1*
X795762Y900079D1*
X797731Y900018D1*
X799692Y899854D1*
X801642Y899588D1*
X803576Y899220D1*
X805487Y898752D1*
X807371Y898184D1*
X809224Y897517D1*
X811038Y896755D1*
X812811Y895899D1*
X814535Y894950D1*
X816209Y893913D1*
X817825Y892790D1*
X819381Y891584D1*
X821176Y890005D1*
X823249Y891802D1*
X824816Y892993D1*
X826442Y894101D1*
X828125Y895123D1*
X829858Y896055D1*
X831639Y896895D1*
X833461Y897640D1*
X835319Y898290D1*
X837209Y898841D1*
X839123Y899291D1*
X841060Y899642D1*
X843013Y899890D1*
X844976Y900035D1*
X846944Y900079D1*
X848912Y900018D1*
X850873Y899854D1*
X852823Y899588D1*
X854757Y899220D1*
X856668Y898752D1*
X858552Y898184D1*
X860406Y897517D1*
X862219Y896755D1*
X863992Y895899D1*
X865717Y894950D1*
X867390Y893913D1*
X869007Y892790D1*
X870562Y891584D1*
X872113Y890239D1*
X929425Y890236D1*
X931071Y890189D1*
X933030Y890004D1*
X934972Y889681D1*
X936886Y889220D1*
X938761Y888625D1*
X940591Y887899D1*
X942364Y887043D1*
X944071Y886066D1*
X945705Y884969D1*
X947257Y883759D1*
X949047Y882118D1*
X958873Y872293D1*
X959037Y874438D1*
X959301Y876388D1*
X959665Y878323D1*
X960131Y880235D1*
X960697Y882121D1*
X961360Y883974D1*
X962119Y885789D1*
X962972Y887563D1*
X963919Y889289D1*
X965386Y891589D1*
X963196Y894071D1*
X962001Y895635D1*
X960890Y897260D1*
X959866Y898941D1*
X958932Y900673D1*
X958089Y902453D1*
X957340Y904273D1*
X956688Y906130D1*
X956135Y908018D1*
X955681Y909934D1*
X955203Y912839D1*
X953210Y913434D1*
X951356Y914094D1*
X949539Y914852D1*
X947764Y915702D1*
X946035Y916646D1*
X944360Y917677D1*
X942740Y918795D1*
X941181Y919997D1*
X939688Y921278D1*
X938262Y922636D1*
X936911Y924067D1*
X935636Y925567D1*
X934442Y927131D1*
X933331Y928756D1*
X932307Y930437D1*
X931373Y932169D1*
X930530Y933949D1*
X929781Y935769D1*
X929129Y937626D1*
X928576Y939514D1*
X928122Y941430D1*
X927768Y943366D1*
X927517Y945319D1*
X927369Y947281D1*
X927323Y949249D1*
X927381Y951217D1*
X927541Y953178D1*
X927804Y955129D1*
X928169Y957063D1*
X928635Y958975D1*
X929201Y960861D1*
X929864Y962714D1*
X930623Y964529D1*
X931476Y966303D1*
X932423Y968029D1*
X933457Y969703D1*
X934577Y971322D1*
X935781Y972879D1*
X937066Y974371D1*
X938425Y975794D1*
X939858Y977143D1*
X941360Y978416D1*
X942927Y979608D1*
X945046Y981014D1*
X943900Y981776D1*
X940157Y980555D1*
X936336Y979614D1*
X932455Y978958D1*
X928537Y978589D1*
X924601Y978512D1*
X920671Y978724D1*
X916766Y979226D1*
X912911Y980014D1*
X909122Y981085D1*
X905424Y982433D1*
X901836Y984050D1*
X898375Y985928D1*
X895064Y988055D1*
X891919Y990421D1*
X888957Y993013D1*
X886739Y995241D1*
X826163Y995236D1*
Y1064449D1*
X883365D1*
X885996Y1067591D1*
X888744Y1070408D1*
X891692Y1073016D1*
X894824Y1075399D1*
X898125Y1077545D1*
X901573Y1079441D1*
X905154Y1081077D1*
X908844Y1082445D1*
X912626Y1083537D1*
X916478Y1084346D1*
X920379Y1084870D1*
X924308Y1085105D1*
X928244Y1085049D1*
X932165Y1084701D1*
X936050Y1084066D1*
X939877Y1083146D1*
X943625Y1081946D1*
X945039Y1081406D1*
X945087Y1123984D1*
X945272Y1125944D1*
X945594Y1127886D1*
X946055Y1129799D1*
X946651Y1131675D1*
X947377Y1133504D1*
X948232Y1135277D1*
X949210Y1136984D1*
X950307Y1138618D1*
X951517Y1140171D1*
X953157Y1141961D1*
X970671Y1159474D1*
X970848Y1161840D1*
X971112Y1163790D1*
X971476Y1165724D1*
X971942Y1167636D1*
X972508Y1169522D1*
X973171Y1171375D1*
X973930Y1173190D1*
X974783Y1174965D1*
X975730Y1176690D1*
X976764Y1178365D1*
X977885Y1179983D1*
X979088Y1181541D1*
X980373Y1183033D1*
X981732Y1184455D1*
X983165Y1185804D1*
X984667Y1187077D1*
X986234Y1188269D1*
X987860Y1189377D1*
X989542Y1190399D1*
X991276Y1191331D1*
X993056Y1192171D1*
X994878Y1192916D1*
X996736Y1193566D1*
X998626Y1194117D1*
X1000541Y1194567D1*
X1002478Y1194917D1*
X1004430Y1195165D1*
X1006394Y1195311D1*
X1008361Y1195354D1*
X1010329Y1195294D1*
X1012290Y1195130D1*
X1014240Y1194864D1*
X1016175Y1194496D1*
X1018085Y1194028D1*
X1019970Y1193459D1*
X1021823Y1192793D1*
X1023636Y1192030D1*
X1025409Y1191175D1*
X1027134Y1190226D1*
X1028807Y1189189D1*
X1030424Y1188066D1*
X1031979Y1186860D1*
X1033469Y1185573D1*
X1034890Y1184211D1*
X1036236Y1182776D1*
X1037507Y1181272D1*
X1038696Y1179705D1*
X1039802Y1178076D1*
X1040822Y1176392D1*
X1041751Y1174657D1*
X1042588Y1172875D1*
X1043331Y1171052D1*
X1043976Y1169194D1*
X1044525Y1167303D1*
X1044972Y1165387D1*
X1045320Y1163449D1*
X1045566Y1161496D1*
X1045748Y1157795D1*
X1045697Y1155828D1*
X1045449Y1153156D1*
X1047727Y1151427D1*
X1049217Y1150140D1*
X1050638Y1148778D1*
X1051984Y1147343D1*
X1053255Y1145839D1*
X1054444Y1144272D1*
X1055550Y1142643D1*
X1056570Y1140959D1*
X1057499Y1139224D1*
X1058336Y1137442D1*
X1059079Y1135619D1*
X1059724Y1133761D1*
X1060273Y1131870D1*
X1060720Y1129954D1*
X1061068Y1128016D1*
X1061314Y1126063D1*
X1061496Y1122362D1*
X1061445Y1120395D1*
X1061290Y1118432D1*
X1060997Y1116293D1*
X1064240Y1114386D1*
X1065857Y1113262D1*
X1067412Y1112056D1*
X1068902Y1110770D1*
X1070323Y1109408D1*
X1071669Y1107972D1*
X1072940Y1106469D1*
X1074129Y1104902D1*
X1075235Y1103273D1*
X1076904Y1100375D1*
X1079234Y1100677D1*
X1081197Y1100823D1*
X1083164Y1100866D1*
X1085133Y1100806D1*
X1087093Y1100642D1*
X1089043Y1100375D1*
X1090978Y1100008D1*
X1092888Y1099539D1*
X1094773Y1098971D1*
X1096626Y1098304D1*
X1098440Y1097542D1*
X1100213Y1096686D1*
X1101937Y1095738D1*
X1103610Y1094701D1*
X1105227Y1093577D1*
X1106782Y1092371D1*
X1108272Y1091085D1*
X1109693Y1089723D1*
X1111039Y1088287D1*
X1112310Y1086783D1*
X1113499Y1085217D1*
X1114605Y1083588D1*
X1115625Y1081904D1*
X1116554Y1080169D1*
X1117391Y1078387D1*
X1118134Y1076564D1*
X1118780Y1074706D1*
X1119328Y1072815D1*
X1119776Y1070899D1*
X1120123Y1068961D1*
X1120369Y1067008D1*
X1120551Y1063307D1*
X1120500Y1061340D1*
X1120345Y1059377D1*
X1120088Y1057427D1*
X1119728Y1055491D1*
X1119269Y1053577D1*
X1118710Y1051690D1*
X1118051Y1049835D1*
X1117298Y1048017D1*
X1116450Y1046240D1*
X1115509Y1044510D1*
X1114480Y1042833D1*
X1113365Y1041211D1*
X1112165Y1039651D1*
X1110711Y1037971D1*
X1113319Y1036281D1*
X1116471Y1033923D1*
X1119441Y1031340D1*
X1122213Y1028545D1*
X1124769Y1025551D1*
X1127098Y1022379D1*
X1129188Y1019043D1*
X1131024Y1015562D1*
X1132600Y1011954D1*
X1133904Y1008240D1*
X1134930Y1004441D1*
X1135675Y1000576D1*
X1136131Y996667D1*
X1136299Y992441D1*
X1136262Y990472D1*
X1354277Y1140900D2*
X1352513Y1138297D1*
X1350085Y1135198D1*
X1347436Y1132289D1*
X1344579Y1129581D1*
X1341529Y1127092D1*
X1338304Y1124835D1*
X1334923Y1122823D1*
X1331400Y1121064D1*
X1327759Y1119571D1*
X1324016Y1118350D1*
X1320194Y1117409D1*
X1316314Y1116753D1*
X1312395Y1116385D1*
X1308459Y1116307D1*
X1304529Y1116520D1*
X1300625Y1117021D1*
X1296769Y1117810D1*
X1292980Y1118881D1*
X1289282Y1120228D1*
X1285694Y1121845D1*
X1282268Y1123703D1*
X1338811Y1067157D1*
X1340152Y1065718D1*
X1341388Y1064186D1*
X1342512Y1062571D1*
X1343518Y1060879D1*
X1344403Y1059121D1*
X1345160Y1057304D1*
X1345786Y1055438D1*
X1346278Y1053533D1*
X1346634Y1051597D1*
X1346850Y1049640D1*
X1346929Y1045591D1*
Y966612D1*
X1348530Y964736D1*
X1349719Y963169D1*
X1350825Y961541D1*
X1351845Y959857D1*
X1352774Y958122D1*
X1353612Y956340D1*
X1354354Y954517D1*
X1355000Y952659D1*
X1355549Y950768D1*
X1355996Y948852D1*
X1356344Y946913D1*
X1356589Y944961D1*
X1356772Y941260D1*
X1356720Y939293D1*
X1356566Y937329D1*
X1356308Y935379D1*
X1355949Y933444D1*
X1355490Y931530D1*
X1354930Y929643D1*
X1354272Y927787D1*
X1353518Y925970D1*
X1352671Y924193D1*
X1351730Y922463D1*
X1350701Y920786D1*
X1349585Y919164D1*
X1348386Y917604D1*
X1347106Y916108D1*
X1345751Y914681D1*
X1344322Y913328D1*
X1342824Y912050D1*
X1341261Y910853D1*
X1339638Y909740D1*
X1337959Y908714D1*
X1336228Y907776D1*
X1334450Y906930D1*
X1332631Y906180D1*
X1330776Y905525D1*
X1328887Y904969D1*
X1326972Y904512D1*
X1325037Y904155D1*
X1323085Y903902D1*
X1321123Y903749D1*
X1319155Y903701D1*
X1317188Y903756D1*
X1315226Y903913D1*
X1313274Y904173D1*
X1311340Y904535D1*
X1309427Y904997D1*
X1307541Y905560D1*
X1305686Y906220D1*
X1303870Y906978D1*
X1302094Y907828D1*
X1300366Y908772D1*
X1298690Y909803D1*
X1297071Y910921D1*
X1295512Y912123D1*
X1294018Y913404D1*
X1292593Y914762D1*
X1291241Y916193D1*
X1289967Y917693D1*
X1288773Y919257D1*
X1287661Y920882D1*
X1286638Y922563D1*
X1285703Y924295D1*
X1284861Y926075D1*
X1284112Y927895D1*
X1283459Y929752D1*
X1282907Y931640D1*
X1282453Y933556D1*
X1282098Y935492D1*
X1281848Y937445D1*
X1281699Y939407D1*
X1281654Y941375D1*
X1281711Y943343D1*
X1281871Y945304D1*
X1282135Y947255D1*
X1282500Y949189D1*
X1282966Y951101D1*
X1283531Y952987D1*
X1284194Y954840D1*
X1284954Y956655D1*
X1285807Y958429D1*
X1286753Y960155D1*
X1287787Y961829D1*
X1288908Y963448D1*
X1290112Y965005D1*
X1291497Y966602D1*
X1291470Y1016291D1*
X1290186Y1012571D1*
X1288631Y1008954D1*
X1286812Y1005463D1*
X1284743Y1002115D1*
X1282430Y998930D1*
X1279890Y995924D1*
X1277135Y993113D1*
X1274178Y990513D1*
X1271039Y988139D1*
X1267734Y986003D1*
X1264280Y984115D1*
X1260696Y982490D1*
X1257001Y981131D1*
X1253217Y980050D1*
X1249362Y979251D1*
X1245459Y978738D1*
X1241530Y978514D1*
X1237594Y978581D1*
X1233675Y978940D1*
X1229791Y979585D1*
X1225967Y980516D1*
X1222222Y981726D1*
X1218576Y983209D1*
X1215049Y984957D1*
X1211661Y986961D1*
X1208430Y989209D1*
X1205374Y991689D1*
X1202509Y994388D1*
X1199852Y997291D1*
X1197415Y1000383D1*
X1195214Y1003646D1*
X1193259Y1007063D1*
X1191562Y1010614D1*
X1190130Y1014281D1*
X1188974Y1018043D1*
X1188098Y1021881D1*
X1187508Y1025772D1*
X1187207Y1029697D1*
X1187197Y1033633D1*
X1187476Y1037559D1*
X1188045Y1041454D1*
X1188899Y1045297D1*
X1190035Y1049064D1*
X1191445Y1052739D1*
X1193123Y1056301D1*
X1195059Y1059727D1*
X1197243Y1063001D1*
X1199663Y1066106D1*
X1202304Y1069025D1*
X1203959Y1070642D1*
X1201052Y1070843D1*
X1199101Y1071102D1*
X1197167Y1071465D1*
X1195253Y1071927D1*
X1193367Y1072490D1*
X1191513Y1073150D1*
X1189697Y1073907D1*
X1187921Y1074757D1*
X1186193Y1075701D1*
X1184517Y1076732D1*
X1182898Y1077850D1*
X1181339Y1079052D1*
X1179845Y1080333D1*
X1178420Y1081692D1*
X1177068Y1083122D1*
X1175794Y1084622D1*
X1174600Y1086186D1*
X1173488Y1087811D1*
X1172465Y1089492D1*
X1171530Y1091224D1*
X1170688Y1093004D1*
X1169938Y1094824D1*
X1169286Y1096681D1*
X1168734Y1098570D1*
X1168280Y1100486D1*
X1167925Y1102421D1*
X1167675Y1104374D1*
X1167526Y1106336D1*
X1167480Y1108304D1*
X1167538Y1110272D1*
X1167698Y1112234D1*
X1167962Y1114184D1*
X1168327Y1116118D1*
X1168793Y1118030D1*
X1169358Y1119916D1*
X1170021Y1121769D1*
X1170781Y1123584D1*
X1171634Y1125358D1*
X1172580Y1127084D1*
X1173614Y1128759D1*
X1174735Y1130377D1*
X1175938Y1131934D1*
X1177324Y1133531D1*
X1177323Y1177325D1*
X1175794Y1179110D1*
X1174600Y1180675D1*
X1173488Y1182299D1*
X1172465Y1183980D1*
X1171530Y1185713D1*
X1170688Y1187492D1*
X1169938Y1189312D1*
X1169286Y1191169D1*
X1168734Y1193058D1*
X1168280Y1194974D1*
X1167925Y1196909D1*
X1167675Y1198862D1*
X1167526Y1200824D1*
X1167480Y1202793D1*
X1167538Y1204760D1*
X1167698Y1206722D1*
X1167962Y1208672D1*
X1168327Y1210606D1*
X1168793Y1212518D1*
X1169358Y1214404D1*
X1170021Y1216257D1*
X1170781Y1218072D1*
X1171634Y1219846D1*
X1172580Y1221572D1*
X1173614Y1223247D1*
X1174735Y1224865D1*
X1175938Y1226423D1*
X1177223Y1227915D1*
X1178583Y1229337D1*
X1180016Y1230686D1*
X1181517Y1231959D1*
X1183084Y1233151D1*
X1184710Y1234259D1*
X1186392Y1235281D1*
X1188126Y1236213D1*
X1189907Y1237052D1*
X1191728Y1237798D1*
X1193587Y1238448D1*
X1195476Y1238999D1*
X1197391Y1239449D1*
X1199328Y1239799D1*
X1201281Y1240047D1*
X1203244Y1240193D1*
X1205211Y1240236D1*
X1207180Y1240176D1*
X1209140Y1240012D1*
X1211091Y1239745D1*
X1213025Y1239378D1*
X1214936Y1238909D1*
X1216820Y1238341D1*
X1218673Y1237675D1*
X1220487Y1236912D1*
X1222260Y1236056D1*
X1223984Y1235108D1*
X1226282Y1233636D1*
X1228425Y1236121D1*
X1250198Y1257899D1*
X1250375Y1260265D1*
X1250639Y1262215D1*
X1251004Y1264150D1*
X1251470Y1266062D1*
X1252035Y1267948D1*
X1252698Y1269801D1*
X1253458Y1271615D1*
X1254311Y1273390D1*
X1255257Y1275115D1*
X1256291Y1276790D1*
X1257412Y1278408D1*
X1258615Y1279966D1*
X1259900Y1281458D1*
X1261260Y1282881D1*
X1262693Y1284230D1*
X1264194Y1285503D1*
X1265761Y1286694D1*
X1267387Y1287802D1*
X1269070Y1288824D1*
X1270803Y1289756D1*
X1272584Y1290596D1*
X1274406Y1291341D1*
X1276264Y1291991D1*
X1278154Y1292542D1*
X1280068Y1292992D1*
X1282005Y1293343D1*
X1283958Y1293591D1*
X1285921Y1293736D1*
X1287888Y1293780D1*
X1289857Y1293719D1*
X1291818Y1293555D1*
X1293768Y1293289D1*
X1295702Y1292921D1*
X1297613Y1292453D1*
X1299497Y1291885D1*
X1301350Y1291218D1*
X1303164Y1290455D1*
X1304937Y1289600D1*
X1306661Y1288651D1*
X1308335Y1287614D1*
X1309951Y1286491D1*
X1311507Y1285285D1*
X1312996Y1283999D1*
X1314417Y1282636D1*
X1315764Y1281201D1*
X1317034Y1279697D1*
X1318223Y1278130D1*
X1319329Y1276501D1*
X1320349Y1274818D1*
X1321278Y1273083D1*
X1322115Y1271301D1*
X1322858Y1269478D1*
X1323504Y1267619D1*
X1324052Y1265728D1*
X1324500Y1263812D1*
X1324848Y1261874D1*
X1325093Y1259921D1*
X1325276Y1256220D1*
X1325224Y1254253D1*
X1325070Y1252290D1*
X1324812Y1250340D1*
X1324453Y1248404D1*
X1323993Y1246491D1*
X1323434Y1244604D1*
X1322776Y1242748D1*
X1322022Y1240930D1*
X1321175Y1239154D1*
X1320234Y1237424D1*
X1319205Y1235747D1*
X1318089Y1234125D1*
X1316890Y1232564D1*
X1315610Y1231068D1*
X1314255Y1229642D1*
X1312825Y1228289D1*
X1311328Y1227010D1*
X1309765Y1225814D1*
X1308142Y1224701D1*
X1306463Y1223675D1*
X1304669Y1222707D1*
X1308167Y1222900D1*
X1312102Y1222844D1*
X1316024Y1222496D1*
X1319908Y1221861D1*
X1323735Y1220941D1*
X1327483Y1219741D1*
X1331134Y1218269D1*
X1334665Y1216530D1*
X1338058Y1214535D1*
X1341295Y1212297D1*
X1344010Y1210115D1*
X1410688Y1210118D1*
Y1140906D1*
X1354286D1*
X1285247Y1632819D2*
X1283615Y1630423D1*
X1281188Y1627324D1*
X1278538Y1624415D1*
X1275681Y1621707D1*
X1272631Y1619218D1*
X1269407Y1616961D1*
X1266025Y1614949D1*
X1262503Y1613190D1*
X1258861Y1611697D1*
X1255118Y1610476D1*
X1251297Y1609535D1*
X1247416Y1608879D1*
X1243497Y1608510D1*
X1239562Y1608433D1*
X1235631Y1608646D1*
X1231727Y1609147D1*
X1227871Y1609936D1*
X1224083Y1611007D1*
X1220385Y1612354D1*
X1216797Y1613971D1*
X1213336Y1615849D1*
X1210025Y1617976D1*
X1206879Y1620343D1*
X1203917Y1622934D1*
X1201154Y1625738D1*
X1198605Y1628736D1*
X1196283Y1631916D1*
X1194205Y1635257D1*
X1192377Y1638744D1*
X1190812Y1642356D1*
X1189517Y1646072D1*
X1188501Y1649875D1*
X1187768Y1653743D1*
X1187322Y1657654D1*
X1187165Y1661587D1*
X1187301Y1665520D1*
X1187724Y1669433D1*
X1188437Y1673304D1*
X1189432Y1677113D1*
X1190706Y1680836D1*
X1192252Y1684457D1*
X1194060Y1687953D1*
X1196121Y1691306D1*
X1198424Y1694497D1*
X1200957Y1697512D1*
X1203705Y1700329D1*
X1206652Y1702937D1*
X1209785Y1705320D1*
X1213085Y1707466D1*
X1216534Y1709362D1*
X1220114Y1710999D1*
X1223804Y1712366D1*
X1227587Y1713458D1*
X1231438Y1714268D1*
X1235340Y1714791D1*
X1239269Y1715026D1*
X1243205Y1714970D1*
X1247126Y1714622D1*
X1251010Y1713987D1*
X1254837Y1713067D1*
X1255080Y1712995D1*
X1255079Y1717774D1*
X1324291D1*
Y1632814D1*
X1285252D1*
X978782Y1659764D2*
X978492Y1655839D1*
X977913Y1651946D1*
X977047Y1648106D1*
X975902Y1644340D1*
X974482Y1640669D1*
X972794Y1637113D1*
X970848Y1633692D1*
X968655Y1630423D1*
X966227Y1627324D1*
X963577Y1624415D1*
X960720Y1621707D1*
X957671Y1619218D1*
X954446Y1616961D1*
X951064Y1614949D1*
X947542Y1613190D1*
X943900Y1611697D1*
X940157Y1610476D1*
X936336Y1609535D1*
X932455Y1608879D1*
X928537Y1608510D1*
X924601Y1608433D1*
X920671Y1608646D1*
X916766Y1609147D1*
X912911Y1609936D1*
X909122Y1611007D1*
X905424Y1612354D1*
X901836Y1613971D1*
X898375Y1615849D1*
X895064Y1617976D1*
X891919Y1620343D1*
X888957Y1622934D1*
X886193Y1625738D1*
X883644Y1628736D1*
X881323Y1631916D1*
X880741Y1632812D1*
X837756Y1632814D1*
Y1717774D1*
X906969D1*
X906987Y1711717D1*
X910724Y1712948D1*
X914545Y1713899D1*
X918424Y1714566D1*
X922341Y1714945D1*
X926277Y1715034D1*
X930207Y1714832D1*
X934113Y1714341D1*
X937971Y1713563D1*
X941761Y1712503D1*
X945463Y1711165D1*
X949056Y1709558D1*
X952521Y1707690D1*
X955839Y1705572D1*
X958991Y1703214D1*
X961961Y1700631D1*
X964732Y1697836D1*
X967289Y1694843D1*
X969618Y1691671D1*
X971707Y1688335D1*
X973543Y1684853D1*
X975119Y1681245D1*
X976424Y1677531D1*
X977450Y1673732D1*
X978194Y1669867D1*
X978651Y1665958D1*
X978819Y1661732D1*
X978782Y1659764D1*
X909885Y1521969D2*
X909594Y1518043D1*
X909016Y1514151D1*
X908150Y1510311D1*
X907004Y1506545D1*
X905584Y1502874D1*
X903896Y1499318D1*
X901950Y1495896D1*
X899757Y1492627D1*
X897329Y1489529D1*
X894680Y1486619D1*
X891823Y1483912D1*
X888773Y1481423D1*
X885549Y1479165D1*
X882167Y1477154D1*
X878644Y1475395D1*
X875003Y1473902D1*
X871260Y1472681D1*
X867438Y1471740D1*
X863558Y1471084D1*
X859639Y1470715D1*
X855703Y1470638D1*
X851773Y1470850D1*
X847869Y1471352D1*
X844013Y1472140D1*
X840224Y1473211D1*
X836526Y1474559D1*
X832938Y1476176D1*
X829478Y1478054D1*
X826167Y1480181D1*
X823021Y1482547D1*
X820059Y1485139D1*
X817295Y1487942D1*
X814747Y1490941D1*
X814472Y1491302D1*
X755297Y1491299D1*
Y1560512D1*
X817835D1*
X819846Y1562534D1*
X822794Y1565142D1*
X825927Y1567525D1*
X829227Y1569671D1*
X832676Y1571567D1*
X836256Y1573203D1*
X839946Y1574571D1*
X843728Y1575663D1*
X847580Y1576472D1*
X851482Y1576996D1*
X855411Y1577231D1*
X859346Y1577175D1*
X863268Y1576827D1*
X867152Y1576192D1*
X870979Y1575272D1*
X874727Y1574072D1*
X878378Y1572600D1*
X881909Y1570861D1*
X885302Y1568866D1*
X888539Y1566627D1*
X891602Y1564155D1*
X894475Y1561463D1*
X897140Y1558567D1*
X899585Y1555483D1*
X901795Y1552226D1*
X903760Y1548815D1*
X905467Y1545269D1*
X906908Y1541605D1*
X908075Y1537846D1*
X908961Y1534012D1*
X909562Y1530121D1*
X909873Y1526197D1*
X909885Y1521969D1*
Y1344803D2*
X909594Y1340878D1*
X909016Y1336986D1*
X908150Y1333146D1*
X907004Y1329379D1*
X905584Y1325709D1*
X903896Y1322152D1*
X901950Y1318731D1*
X899757Y1315462D1*
X897329Y1312364D1*
X894680Y1309454D1*
X891823Y1306747D1*
X888773Y1304257D1*
X885549Y1302000D1*
X882167Y1299988D1*
X878644Y1298230D1*
X875003Y1296736D1*
X871260Y1295516D1*
X867438Y1294575D1*
X863558Y1293919D1*
X859639Y1293550D1*
X855703Y1293472D1*
X851773Y1293685D1*
X847869Y1294186D1*
X844013Y1294975D1*
X840224Y1296046D1*
X836526Y1297394D1*
X832938Y1299010D1*
X829478Y1300888D1*
X826167Y1303016D1*
X823021Y1305382D1*
X820059Y1307974D1*
X817295Y1310777D1*
X814747Y1313776D1*
X814472Y1314136D1*
X755297Y1314134D1*
Y1383346D1*
X817835D1*
X819846Y1385369D1*
X822794Y1387976D1*
X825927Y1390360D1*
X829227Y1392505D1*
X832676Y1394402D1*
X836256Y1396038D1*
X839946Y1397406D1*
X843728Y1398497D1*
X847580Y1399307D1*
X851482Y1399831D1*
X855411Y1400066D1*
X859346Y1400009D1*
X863268Y1399661D1*
X867152Y1399026D1*
X870979Y1398106D1*
X874727Y1396907D1*
X878378Y1395434D1*
X881909Y1393696D1*
X885302Y1391701D1*
X888539Y1389462D1*
X891602Y1386990D1*
X894475Y1384298D1*
X897140Y1381402D1*
X899585Y1378318D1*
X901795Y1375060D1*
X903760Y1371650D1*
X905467Y1368104D1*
X906908Y1364440D1*
X908075Y1360681D1*
X908961Y1356846D1*
X909562Y1352955D1*
X909873Y1349031D1*
X909885Y1344803D1*
Y1167638D2*
X909594Y1163713D1*
X909016Y1159820D1*
X908150Y1155980D1*
X907004Y1152214D1*
X905584Y1148543D1*
X903896Y1144987D1*
X901950Y1141566D1*
X899757Y1138297D1*
X897329Y1135198D1*
X894680Y1132289D1*
X891823Y1129581D1*
X888773Y1127092D1*
X885549Y1124835D1*
X882167Y1122823D1*
X878644Y1121064D1*
X875003Y1119571D1*
X871260Y1118350D1*
X867438Y1117409D1*
X863558Y1116753D1*
X859639Y1116385D1*
X855703Y1116307D1*
X851773Y1116520D1*
X847869Y1117021D1*
X844013Y1117810D1*
X840224Y1118881D1*
X836526Y1120228D1*
X832938Y1121845D1*
X829478Y1123723D1*
X826167Y1125850D1*
X823021Y1128217D1*
X820059Y1130808D1*
X817295Y1133612D1*
X814747Y1136610D1*
X814472Y1136971D1*
X755297Y1136969D1*
Y1206181D1*
X817835D1*
X819846Y1208203D1*
X822794Y1210811D1*
X825927Y1213194D1*
X829227Y1215340D1*
X832676Y1217236D1*
X836256Y1218873D1*
X839946Y1220240D1*
X843728Y1221332D1*
X847580Y1222142D1*
X851482Y1222665D1*
X855411Y1222900D1*
X859346Y1222844D1*
X863268Y1222496D1*
X867152Y1221861D1*
X870979Y1220941D1*
X874727Y1219741D1*
X878378Y1218269D1*
X881909Y1216530D1*
X885302Y1214535D1*
X888539Y1212297D1*
X891602Y1209824D1*
X894475Y1207133D1*
X897140Y1204236D1*
X899585Y1201152D1*
X901795Y1197895D1*
X903760Y1194484D1*
X905467Y1190938D1*
X906908Y1187274D1*
X908075Y1183516D1*
X908961Y1179681D1*
X909562Y1175790D1*
X909873Y1171866D1*
X909885Y1167638D1*
X1203213Y1344803D2*
X1202971Y1338903D1*
X1202440Y1333022D1*
X1201621Y1327175D1*
X1200516Y1321374D1*
X1199127Y1315635D1*
X1197458Y1309970D1*
X1195513Y1304395D1*
X1193297Y1298921D1*
X1190815Y1293564D1*
X1188072Y1288335D1*
X1185076Y1283245D1*
X1181835Y1278311D1*
X1178354Y1273541D1*
X1174643Y1268946D1*
X1170713Y1264541D1*
X1166570Y1260333D1*
X1162224Y1256335D1*
X1157689Y1252552D1*
X1152974Y1249000D1*
X1148088Y1245681D1*
X1143047Y1242608D1*
X1137861Y1239785D1*
X1132542Y1237220D1*
X1127104Y1234919D1*
X1121559Y1232888D1*
X1115921Y1231133D1*
X1110203Y1229655D1*
X1104421Y1228461D1*
X1098587Y1227551D1*
X1092714Y1226929D1*
X1086819Y1226596D1*
X1080913Y1226554D1*
X1075014Y1226801D1*
X1069134Y1227337D1*
X1063286Y1228161D1*
X1057487Y1229272D1*
X1051749Y1230665D1*
X1046087Y1232340D1*
X1040513Y1234290D1*
X1035042Y1236510D1*
X1029686Y1238997D1*
X1024459Y1241745D1*
X1019373Y1244745D1*
X1014441Y1247992D1*
X1009673Y1251476D1*
X1005084Y1255192D1*
X1000681Y1259126D1*
X996478Y1263273D1*
X992482Y1267622D1*
X988706Y1272161D1*
X985156Y1276881D1*
X981843Y1281768D1*
X978773Y1286812D1*
X975955Y1292001D1*
X973395Y1297323D1*
X971100Y1302762D1*
X969073Y1308310D1*
X967323Y1313949D1*
X965850Y1319667D1*
X964661Y1325451D1*
X963757Y1331286D1*
X963140Y1337159D1*
X962814Y1343055D1*
X962776Y1348959D1*
X963028Y1354860D1*
X963570Y1360739D1*
X964400Y1366585D1*
X965516Y1372385D1*
X966915Y1378121D1*
X968593Y1383782D1*
X970549Y1389354D1*
X972776Y1394823D1*
X975266Y1400176D1*
X978018Y1405400D1*
X981024Y1410484D1*
X984276Y1415413D1*
X987764Y1420177D1*
X991483Y1424764D1*
X995423Y1429163D1*
X999573Y1433362D1*
X1003925Y1437354D1*
X1008467Y1441126D1*
X1013190Y1444672D1*
X1018080Y1447980D1*
X1023127Y1451046D1*
X1028319Y1453858D1*
X1033643Y1456413D1*
X1039085Y1458705D1*
X1044634Y1460726D1*
X1050274Y1462471D1*
X1055995Y1463938D1*
X1061780Y1465122D1*
X1067615Y1466021D1*
X1073488Y1466631D1*
X1079385Y1466954D1*
X1085290Y1466986D1*
X1091189Y1466728D1*
X1097068Y1466181D1*
X1102915Y1465346D1*
X1108711Y1464224D1*
X1114448Y1462820D1*
X1120106Y1461136D1*
X1125677Y1459176D1*
X1131144Y1456945D1*
X1136495Y1454448D1*
X1141717Y1451692D1*
X1146798Y1448681D1*
X1151724Y1445427D1*
X1156484Y1441933D1*
X1161068Y1438210D1*
X1165463Y1434266D1*
X1169659Y1430112D1*
X1173647Y1425756D1*
X1177415Y1421210D1*
X1180955Y1416484D1*
X1184260Y1411591D1*
X1187320Y1406541D1*
X1190129Y1401346D1*
X1192680Y1396021D1*
X1194965Y1390576D1*
X1196980Y1385026D1*
X1198722Y1379383D1*
X1200182Y1373663D1*
X1201362Y1367877D1*
X1202255Y1362039D1*
X1202861Y1356165D1*
X1203177Y1350269D1*
X1203213Y1344803D1*
X1014921Y1891003D2*
X1082165D1*
Y1806042D1*
X1012953D1*
Y1806865D1*
X1010101Y1806906D1*
X1008139Y1807063D1*
X1006188Y1807323D1*
X1004253Y1807685D1*
X1002340Y1808147D1*
X1000454Y1808710D1*
X998600Y1809370D1*
X996783Y1810127D1*
X995008Y1810978D1*
X993280Y1811921D1*
X991604Y1812953D1*
X989984Y1814071D1*
X988425Y1815273D1*
X986932Y1816554D1*
X985507Y1817912D1*
X984155Y1819343D1*
X982881Y1820843D1*
X981686Y1822407D1*
X980575Y1824031D1*
X979551Y1825713D1*
X978617Y1827445D1*
X977774Y1829224D1*
X977025Y1831045D1*
X976373Y1832902D1*
X975820Y1834790D1*
X975366Y1836706D1*
X975012Y1838642D1*
X974761Y1840594D1*
X974613Y1842556D1*
X974567Y1844525D1*
X974625Y1846492D1*
X974785Y1848454D1*
X975049Y1850404D1*
X975413Y1852339D1*
X975879Y1854251D1*
X976445Y1856136D1*
X977108Y1857990D1*
X977867Y1859804D1*
X978720Y1861579D1*
X979667Y1863304D1*
X980701Y1864979D1*
X981822Y1866597D1*
X983025Y1868155D1*
X984310Y1869647D1*
X985669Y1871070D1*
X987102Y1872419D1*
X988604Y1873692D1*
X990171Y1874883D1*
X991797Y1875991D1*
X993479Y1877013D1*
X995213Y1877945D1*
X996993Y1878785D1*
X998815Y1879530D1*
X1000673Y1880180D1*
X1002563Y1880731D1*
X1004478Y1881181D1*
X1006415Y1881531D1*
X1008367Y1881780D1*
X1010331Y1881925D1*
X1012951Y1881948D1*
X1012953Y1891003D1*
X1014921D1*
X1286890Y1792801D2*
Y1723365D1*
X1217677D1*
Y1792808D1*
X1216530Y1795894D1*
X1215978Y1797782D1*
X1215524Y1799698D1*
X1215169Y1801634D1*
X1214919Y1803587D1*
X1214770Y1805549D1*
X1214724Y1807517D1*
X1214782Y1809484D1*
X1214942Y1811446D1*
X1215206Y1813396D1*
X1215571Y1815331D1*
X1216037Y1817243D1*
X1216602Y1819129D1*
X1217265Y1820982D1*
X1218025Y1822797D1*
X1218878Y1824571D1*
X1219824Y1826297D1*
X1220858Y1827971D1*
X1221979Y1829589D1*
X1223182Y1831147D1*
X1224467Y1832639D1*
X1225827Y1834062D1*
X1227260Y1835411D1*
X1228761Y1836684D1*
X1230328Y1837875D1*
X1231954Y1838983D1*
X1233636Y1840005D1*
X1235370Y1840937D1*
X1237151Y1841777D1*
X1238972Y1842522D1*
X1240831Y1843172D1*
X1242720Y1843723D1*
X1244635Y1844173D1*
X1246572Y1844524D1*
X1248525Y1844772D1*
X1250488Y1844917D1*
X1252455Y1844961D1*
X1254424Y1844900D1*
X1256385Y1844736D1*
X1258335Y1844470D1*
X1260269Y1844102D1*
X1262180Y1843634D1*
X1264064Y1843066D1*
X1265917Y1842399D1*
X1267731Y1841636D1*
X1269504Y1840781D1*
X1271228Y1839832D1*
X1272902Y1838795D1*
X1274518Y1837672D1*
X1276073Y1836466D1*
X1277563Y1835180D1*
X1278984Y1833818D1*
X1280331Y1832382D1*
X1281601Y1830878D1*
X1282790Y1829311D1*
X1283896Y1827682D1*
X1284916Y1825999D1*
X1285845Y1824264D1*
X1286682Y1822482D1*
X1287425Y1820659D1*
X1288071Y1818801D1*
X1288619Y1816909D1*
X1289067Y1814993D1*
X1289415Y1813055D1*
X1289660Y1811102D1*
X1289843Y1807402D1*
X1289791Y1805434D1*
X1289636Y1803471D1*
X1289379Y1801521D1*
X1289020Y1799585D1*
X1288560Y1797672D1*
X1288001Y1795785D1*
X1286892Y1792843D1*
X869567Y1785726D2*
Y1723365D1*
X800354D1*
Y1808325D1*
X801346D1*
X801556Y1811446D1*
X801820Y1813396D1*
X802185Y1815331D1*
X802651Y1817243D1*
X803217Y1819129D1*
X803879Y1820982D1*
X804639Y1822797D1*
X805492Y1824571D1*
X806438Y1826297D1*
X807472Y1827971D1*
X808593Y1829589D1*
X809797Y1831147D1*
X811081Y1832639D1*
X812441Y1834062D1*
X813874Y1835411D1*
X815375Y1836684D1*
X816942Y1837875D1*
X818568Y1838983D1*
X820251Y1840005D1*
X821984Y1840937D1*
X823765Y1841777D1*
X825587Y1842522D1*
X827445Y1843172D1*
X829335Y1843723D1*
X831249Y1844173D1*
X833186Y1844524D1*
X835139Y1844772D1*
X837102Y1844917D1*
X839070Y1844961D1*
X841038Y1844900D1*
X842999Y1844736D1*
X844949Y1844470D1*
X846883Y1844102D1*
X848794Y1843634D1*
X850678Y1843066D1*
X852531Y1842399D1*
X854345Y1841636D1*
X856118Y1840781D1*
X857843Y1839832D1*
X859516Y1838795D1*
X861133Y1837672D1*
X862688Y1836466D1*
X864177Y1835180D1*
X865598Y1833818D1*
X866945Y1832382D1*
X868215Y1830878D1*
X869404Y1829311D1*
X870510Y1827682D1*
X871530Y1825999D1*
X872459Y1824264D1*
X873297Y1822482D1*
X874039Y1820659D1*
X874685Y1818801D1*
X875234Y1816909D1*
X875681Y1814993D1*
X876029Y1813055D1*
X876274Y1811102D1*
X876457Y1807402D1*
X876406Y1805434D1*
X876251Y1803471D1*
X875993Y1801521D1*
X875634Y1799585D1*
X875175Y1797672D1*
X874615Y1795785D1*
X873957Y1793929D1*
X873203Y1792112D1*
X872356Y1790335D1*
X871415Y1788605D1*
X869571Y1785743D1*
X1486690Y1593976D2*
X1501239D1*
Y1524764D1*
X1416278D1*
Y1576598D1*
X1414782Y1579618D1*
X1414033Y1581438D1*
X1413381Y1583295D1*
X1412828Y1585184D1*
X1412374Y1587100D1*
X1412020Y1589035D1*
X1411769Y1590988D1*
X1411621Y1592950D1*
X1411575Y1594919D1*
X1411633Y1596886D1*
X1411793Y1598848D1*
X1412056Y1600798D1*
X1412421Y1602732D1*
X1412887Y1604644D1*
X1413453Y1606530D1*
X1414115Y1608383D1*
X1414875Y1610198D1*
X1415728Y1611972D1*
X1416675Y1613698D1*
X1417709Y1615373D1*
X1418829Y1616991D1*
X1420033Y1618549D1*
X1421318Y1620041D1*
X1422677Y1621463D1*
X1424110Y1622812D1*
X1425612Y1624085D1*
X1427178Y1625277D1*
X1428804Y1626385D1*
X1430487Y1627407D1*
X1432220Y1628339D1*
X1434001Y1629178D1*
X1435823Y1629924D1*
X1437681Y1630573D1*
X1439571Y1631125D1*
X1441486Y1631575D1*
X1443423Y1631925D1*
X1445375Y1632173D1*
X1447339Y1632319D1*
X1449306Y1632362D1*
X1451274Y1632302D1*
X1453235Y1632138D1*
X1455185Y1631871D1*
X1457119Y1631504D1*
X1459030Y1631035D1*
X1460915Y1630467D1*
X1462768Y1629801D1*
X1464581Y1629038D1*
X1466354Y1628182D1*
X1468079Y1627234D1*
X1469752Y1626197D1*
X1471369Y1625073D1*
X1472924Y1623867D1*
X1474413Y1622581D1*
X1475835Y1621219D1*
X1477181Y1619783D1*
X1478451Y1618280D1*
X1479640Y1616713D1*
X1480747Y1615084D1*
X1481766Y1613400D1*
X1482696Y1611665D1*
X1483533Y1609883D1*
X1484276Y1608060D1*
X1484921Y1606202D1*
X1485470Y1604311D1*
X1485917Y1602395D1*
X1486265Y1600457D1*
X1486510Y1598504D1*
X1486693Y1594803D1*
X1486672Y1593980D1*
X666714Y1523110D2*
X749706D1*
Y1471276D1*
X751249Y1468151D1*
X751992Y1466328D1*
X752638Y1464470D1*
X753186Y1462579D1*
X753634Y1460663D1*
X753982Y1458724D1*
X754227Y1456772D1*
X754409Y1453071D1*
X754358Y1451104D1*
X754203Y1449140D1*
X753946Y1447190D1*
X753587Y1445255D1*
X753127Y1443341D1*
X752568Y1441454D1*
X751909Y1439598D1*
X751156Y1437781D1*
X750308Y1436004D1*
X749367Y1434274D1*
X748339Y1432597D1*
X747223Y1430975D1*
X746024Y1429415D1*
X744744Y1427919D1*
X743388Y1426492D1*
X741959Y1425139D1*
X740462Y1423861D1*
X738899Y1422664D1*
X737276Y1421551D1*
X735597Y1420525D1*
X733866Y1419587D1*
X732088Y1418741D1*
X730269Y1417991D1*
X728413Y1417336D1*
X726525Y1416780D1*
X724610Y1416323D1*
X722675Y1415966D1*
X720723Y1415713D1*
X718761Y1415560D1*
X716793Y1415512D1*
X714825Y1415567D1*
X712864Y1415724D1*
X710912Y1415984D1*
X708978Y1416346D1*
X707064Y1416808D1*
X705178Y1417371D1*
X703324Y1418031D1*
X701508Y1418789D1*
X699732Y1419639D1*
X698004Y1420583D1*
X696328Y1421614D1*
X694709Y1422732D1*
X693150Y1423934D1*
X691656Y1425215D1*
X690231Y1426573D1*
X688879Y1428004D1*
X687605Y1429504D1*
X686411Y1431068D1*
X685299Y1432693D1*
X684276Y1434374D1*
X683341Y1436106D1*
X682499Y1437886D1*
X681749Y1439706D1*
X681097Y1441563D1*
X680545Y1443451D1*
X680091Y1445367D1*
X679736Y1447303D1*
X679486Y1449256D1*
X679337Y1451218D1*
X679312Y1453900D1*
X664745Y1453898D1*
Y1523110D1*
X666714D1*
X1486690Y1420748D2*
X1501239D1*
Y1351535D1*
X1416278D1*
Y1403370D1*
X1414782Y1406390D1*
X1414033Y1408210D1*
X1413381Y1410067D1*
X1412828Y1411955D1*
X1412374Y1413871D1*
X1412020Y1415807D1*
X1411769Y1417760D1*
X1411621Y1419722D1*
X1411575Y1421690D1*
X1411633Y1423657D1*
X1411793Y1425619D1*
X1412056Y1427570D1*
X1412421Y1429504D1*
X1412887Y1431416D1*
X1413453Y1433302D1*
X1414115Y1435155D1*
X1414875Y1436970D1*
X1415728Y1438744D1*
X1416675Y1440470D1*
X1417709Y1442144D1*
X1418829Y1443762D1*
X1420033Y1445320D1*
X1421318Y1446812D1*
X1422677Y1448235D1*
X1424110Y1449584D1*
X1425612Y1450857D1*
X1427178Y1452049D1*
X1428804Y1453156D1*
X1430487Y1454178D1*
X1432220Y1455110D1*
X1434001Y1455950D1*
X1435823Y1456696D1*
X1437681Y1457345D1*
X1439571Y1457896D1*
X1441486Y1458346D1*
X1443423Y1458697D1*
X1445375Y1458945D1*
X1447339Y1459091D1*
X1449306Y1459134D1*
X1451274Y1459073D1*
X1453235Y1458909D1*
X1455185Y1458643D1*
X1457119Y1458276D1*
X1459030Y1457807D1*
X1460915Y1457239D1*
X1462768Y1456572D1*
X1464581Y1455810D1*
X1466354Y1454954D1*
X1468079Y1454005D1*
X1469752Y1452969D1*
X1471369Y1451845D1*
X1472924Y1450639D1*
X1474413Y1449353D1*
X1475835Y1447991D1*
X1477181Y1446555D1*
X1478451Y1445051D1*
X1479640Y1443484D1*
X1480747Y1441856D1*
X1481766Y1440172D1*
X1482696Y1438437D1*
X1483533Y1436655D1*
X1484276Y1434832D1*
X1484921Y1432974D1*
X1485470Y1431083D1*
X1485917Y1429167D1*
X1486265Y1427228D1*
X1486510Y1425276D1*
X1486693Y1421575D1*
X1486672Y1420752D1*
X666714Y1345945D2*
X749706D1*
Y1294110D1*
X751249Y1290986D1*
X751992Y1289163D1*
X752638Y1287304D1*
X753186Y1285413D1*
X753634Y1283497D1*
X753982Y1281559D1*
X754227Y1279606D1*
X754409Y1275906D1*
X754358Y1273938D1*
X754203Y1271975D1*
X753946Y1270025D1*
X753587Y1268089D1*
X753127Y1266176D1*
X752568Y1264289D1*
X751909Y1262433D1*
X751156Y1260615D1*
X750308Y1258839D1*
X749367Y1257109D1*
X748339Y1255432D1*
X747223Y1253810D1*
X746024Y1252249D1*
X744744Y1250753D1*
X743388Y1249327D1*
X741959Y1247974D1*
X740462Y1246696D1*
X738899Y1245499D1*
X737276Y1244386D1*
X735597Y1243360D1*
X733866Y1242421D1*
X732088Y1241576D1*
X730269Y1240825D1*
X728413Y1240171D1*
X726525Y1239614D1*
X724610Y1239157D1*
X722675Y1238801D1*
X720723Y1238547D1*
X718761Y1238395D1*
X716793Y1238346D1*
X714825Y1238402D1*
X712864Y1238559D1*
X710912Y1238819D1*
X708978Y1239181D1*
X707064Y1239643D1*
X705178Y1240206D1*
X703324Y1240866D1*
X701508Y1241623D1*
X699732Y1242474D1*
X698004Y1243417D1*
X696328Y1244449D1*
X694709Y1245567D1*
X693150Y1246769D1*
X691656Y1248050D1*
X690231Y1249408D1*
X688879Y1250839D1*
X687605Y1252339D1*
X686411Y1253903D1*
X685299Y1255528D1*
X684276Y1257209D1*
X683341Y1258941D1*
X682499Y1260720D1*
X681749Y1262541D1*
X681097Y1264398D1*
X680545Y1266286D1*
X680091Y1268202D1*
X679736Y1270138D1*
X679486Y1272091D1*
X679337Y1274052D1*
X679312Y1276735D1*
X664745Y1276732D1*
Y1345945D1*
X666714D1*
X1486690Y1247520D2*
X1501239D1*
Y1178307D1*
X1416278D1*
Y1230142D1*
X1414782Y1233161D1*
X1414033Y1234982D1*
X1413381Y1236839D1*
X1412828Y1238727D1*
X1412374Y1240643D1*
X1412020Y1242579D1*
X1411769Y1244531D1*
X1411621Y1246493D1*
X1411575Y1248462D1*
X1411633Y1250429D1*
X1411793Y1252391D1*
X1412056Y1254341D1*
X1412421Y1256276D1*
X1412887Y1258188D1*
X1413453Y1260073D1*
X1414115Y1261927D1*
X1414875Y1263741D1*
X1415728Y1265516D1*
X1416675Y1267241D1*
X1417709Y1268916D1*
X1418829Y1270534D1*
X1420033Y1272092D1*
X1421318Y1273584D1*
X1422677Y1275007D1*
X1424110Y1276356D1*
X1425612Y1277629D1*
X1427178Y1278820D1*
X1428804Y1279928D1*
X1430487Y1280950D1*
X1432220Y1281882D1*
X1434001Y1282722D1*
X1435823Y1283467D1*
X1437681Y1284117D1*
X1439571Y1284668D1*
X1441486Y1285118D1*
X1443423Y1285469D1*
X1445375Y1285717D1*
X1447339Y1285862D1*
X1449306Y1285906D1*
X1451274Y1285845D1*
X1453235Y1285681D1*
X1455185Y1285415D1*
X1457119Y1285047D1*
X1459030Y1284579D1*
X1460915Y1284010D1*
X1462768Y1283344D1*
X1464581Y1282581D1*
X1466354Y1281726D1*
X1468079Y1280777D1*
X1469752Y1279740D1*
X1471369Y1278617D1*
X1472924Y1277411D1*
X1474413Y1276125D1*
X1475835Y1274762D1*
X1477181Y1273327D1*
X1478451Y1271823D1*
X1479640Y1270256D1*
X1480747Y1268627D1*
X1481766Y1266944D1*
X1482696Y1265209D1*
X1483533Y1263427D1*
X1484276Y1261604D1*
X1484921Y1259745D1*
X1485470Y1257854D1*
X1485917Y1255938D1*
X1486265Y1254000D1*
X1486510Y1252047D1*
X1486693Y1248346D1*
X1486672Y1247524D1*
X666714Y1168780D2*
X749706D1*
Y1116945D1*
X751249Y1113820D1*
X751992Y1111997D1*
X752638Y1110139D1*
X753186Y1108248D1*
X753634Y1106332D1*
X753982Y1104394D1*
X754227Y1102441D1*
X754409Y1098740D1*
X754358Y1096773D1*
X754203Y1094810D1*
X753946Y1092860D1*
X753587Y1090924D1*
X753127Y1089010D1*
X752568Y1087123D1*
X751909Y1085268D1*
X751156Y1083450D1*
X750308Y1081673D1*
X749367Y1079944D1*
X748339Y1078266D1*
X747223Y1076644D1*
X746024Y1075084D1*
X744744Y1073588D1*
X743388Y1072161D1*
X741959Y1070808D1*
X740462Y1069530D1*
X738899Y1068333D1*
X737276Y1067220D1*
X735597Y1066194D1*
X733866Y1065256D1*
X732088Y1064411D1*
X730269Y1063660D1*
X728413Y1063005D1*
X726525Y1062449D1*
X724610Y1061992D1*
X722675Y1061635D1*
X720723Y1061382D1*
X718761Y1061230D1*
X716793Y1061181D1*
X714825Y1061236D1*
X712864Y1061394D1*
X710912Y1061654D1*
X708978Y1062016D1*
X707064Y1062478D1*
X705178Y1063041D1*
X703324Y1063701D1*
X701508Y1064458D1*
X699732Y1065308D1*
X698004Y1066252D1*
X696328Y1067283D1*
X694709Y1068402D1*
X693150Y1069604D1*
X691656Y1070885D1*
X690231Y1072243D1*
X688879Y1073673D1*
X687605Y1075173D1*
X686411Y1076738D1*
X685299Y1078362D1*
X684276Y1080043D1*
X683341Y1081776D1*
X682499Y1083555D1*
X681749Y1085375D1*
X681097Y1087232D1*
X680545Y1089121D1*
X680091Y1091037D1*
X679736Y1092972D1*
X679486Y1094925D1*
X679337Y1096887D1*
X679312Y1099570D1*
X664745Y1099567D1*
Y1168780D1*
X666714D1*
X737580Y1027047D2*
X820572D1*
Y957835D1*
X809522D1*
X809476Y955041D1*
X809322Y953077D1*
X809064Y951127D1*
X808705Y949192D1*
X808245Y947278D1*
X807686Y945391D1*
X807028Y943535D1*
X806274Y941718D1*
X805427Y939941D1*
X804486Y938211D1*
X803457Y936534D1*
X802341Y934912D1*
X801142Y933352D1*
X799862Y931856D1*
X798507Y930429D1*
X797077Y929076D1*
X795580Y927798D1*
X794017Y926601D1*
X792394Y925488D1*
X790715Y924462D1*
X788984Y923524D1*
X787206Y922678D1*
X785387Y921928D1*
X783531Y921273D1*
X781643Y920717D1*
X779728Y920260D1*
X777793Y919903D1*
X775841Y919650D1*
X773879Y919497D1*
X771911Y919449D1*
X769944Y919504D1*
X767982Y919661D1*
X766030Y919921D1*
X764096Y920283D1*
X762182Y920745D1*
X760297Y921308D1*
X758442Y921969D1*
X756626Y922726D1*
X754850Y923576D1*
X753122Y924520D1*
X751446Y925551D1*
X749827Y926669D1*
X748268Y927871D1*
X746774Y929152D1*
X745349Y930510D1*
X743997Y931941D1*
X742723Y933441D1*
X741529Y935005D1*
X740417Y936630D1*
X739394Y938311D1*
X738459Y940043D1*
X737617Y941823D1*
X736867Y943643D1*
X736215Y945500D1*
X735663Y947388D1*
X735209Y949304D1*
X734854Y951240D1*
X734604Y953193D1*
X734455Y955155D1*
X734409Y957123D1*
X734467Y959091D1*
X734627Y961052D1*
X734891Y963003D1*
X735610Y966394D1*
X735612Y1027047D1*
X737580D1*
X1183428Y899612D2*
X1183274Y901612D1*
X1183228Y903580D1*
X1183286Y905547D1*
X1183446Y907509D1*
X1183710Y909459D1*
X1184075Y911394D1*
X1184541Y913306D1*
X1185106Y915192D1*
X1185769Y917045D1*
X1186529Y918860D1*
X1187382Y920634D1*
X1188328Y922360D1*
X1189362Y924034D1*
X1190483Y925652D1*
X1191686Y927210D1*
X1192971Y928702D1*
X1194331Y930125D1*
X1195764Y931474D1*
X1197265Y932747D1*
X1198832Y933938D1*
X1200458Y935046D1*
X1202140Y936068D1*
X1203874Y937000D1*
X1205655Y937840D1*
X1207476Y938585D1*
X1209335Y939235D1*
X1211224Y939786D1*
X1213139Y940236D1*
X1215076Y940587D1*
X1217029Y940835D1*
X1218992Y940980D1*
X1220959Y941024D1*
X1222928Y940963D1*
X1224888Y940799D1*
X1226839Y940533D1*
X1228773Y940165D1*
X1230684Y939697D1*
X1232568Y939129D1*
X1234421Y938462D1*
X1236235Y937699D1*
X1238008Y936844D1*
X1239732Y935895D1*
X1241406Y934858D1*
X1243022Y933735D1*
X1244577Y932529D1*
X1246067Y931243D1*
X1247488Y929881D1*
X1248835Y928445D1*
X1250105Y926941D1*
X1251294Y925374D1*
X1252400Y923745D1*
X1253420Y922062D1*
X1254349Y920327D1*
X1255186Y918545D1*
X1255929Y916722D1*
X1256575Y914864D1*
X1257123Y912972D1*
X1257571Y911056D1*
X1257919Y909118D1*
X1258164Y907165D1*
X1258335Y903974D1*
X1260329Y904016D1*
X1262298Y903955D1*
X1264259Y903791D1*
X1266209Y903525D1*
X1268143Y903157D1*
X1270054Y902689D1*
X1271938Y902121D1*
X1273791Y901454D1*
X1275605Y900692D1*
X1277378Y899836D1*
X1279102Y898887D1*
X1280776Y897850D1*
X1282392Y896727D1*
X1283948Y895521D1*
X1285437Y894235D1*
X1286858Y892873D1*
X1288205Y891437D1*
X1289475Y889933D1*
X1290664Y888366D1*
X1291770Y886738D1*
X1292790Y885054D1*
X1293719Y883319D1*
X1294556Y881537D1*
X1295299Y879714D1*
X1295945Y877856D1*
X1296493Y875965D1*
X1296941Y874049D1*
X1297289Y872110D1*
X1297534Y870157D1*
X1297677Y868134D1*
X1396761Y769051D1*
X1400115Y769720D1*
X1402068Y769969D1*
X1404031Y770114D1*
X1405999Y770157D1*
X1407967Y770097D1*
X1409928Y769933D1*
X1411878Y769667D1*
X1413812Y769299D1*
X1415723Y768831D1*
X1417608Y768262D1*
X1419461Y767596D1*
X1421274Y766833D1*
X1423047Y765978D1*
X1424772Y765029D1*
X1426445Y763992D1*
X1428062Y762869D1*
X1429617Y761663D1*
X1431106Y760377D1*
X1432528Y759014D1*
X1433874Y757579D1*
X1435419Y755714D1*
X1458858Y779157D1*
X1459037Y781525D1*
X1459301Y783475D1*
X1459665Y785409D1*
X1460131Y787322D1*
X1460697Y789207D1*
X1461360Y791060D1*
X1462119Y792875D1*
X1462972Y794650D1*
X1463919Y796375D1*
X1464953Y798050D1*
X1466073Y799668D1*
X1467277Y801226D1*
X1468562Y802718D1*
X1469921Y804140D1*
X1471354Y805490D1*
X1472856Y806762D1*
X1474423Y807954D1*
X1476049Y809062D1*
X1477731Y810084D1*
X1479465Y811016D1*
X1481245Y811856D1*
X1483067Y812601D1*
X1484925Y813251D1*
X1486815Y813802D1*
X1488730Y814252D1*
X1490667Y814602D1*
X1492619Y814850D1*
X1494583Y814996D1*
X1496550Y815039D1*
X1498518Y814979D1*
X1500479Y814815D1*
X1502429Y814549D1*
X1504364Y814181D1*
X1506274Y813713D1*
X1508159Y813144D1*
X1510012Y812478D1*
X1511825Y811715D1*
X1513598Y810860D1*
X1515323Y809911D1*
X1516996Y808874D1*
X1518613Y807751D1*
X1520168Y806545D1*
X1521657Y805259D1*
X1523079Y803896D1*
X1524425Y802461D1*
X1525696Y800957D1*
X1526885Y799390D1*
X1527991Y797761D1*
X1529010Y796077D1*
X1529940Y794343D1*
X1530777Y792560D1*
X1531520Y790738D1*
X1532165Y788879D1*
X1532714Y786988D1*
X1533161Y785072D1*
X1533509Y783134D1*
X1533755Y781181D1*
X1533937Y777480D1*
X1533886Y775513D1*
X1533731Y773550D1*
X1533474Y771600D1*
X1533114Y769664D1*
X1532655Y767751D1*
X1532096Y765864D1*
X1531437Y764008D1*
X1530684Y762190D1*
X1529836Y760413D1*
X1528895Y758684D1*
X1527866Y757007D1*
X1526751Y755385D1*
X1525551Y753824D1*
X1524272Y752328D1*
X1522916Y750902D1*
X1521487Y749549D1*
X1519990Y748270D1*
X1518427Y747073D1*
X1516803Y745961D1*
X1515125Y744934D1*
X1513394Y743996D1*
X1511615Y743151D1*
X1509797Y742400D1*
X1507941Y741745D1*
X1506052Y741189D1*
X1504138Y740732D1*
X1502202Y740375D1*
X1500251Y740122D1*
X1498066Y739965D1*
X1462572Y704476D1*
X1465815Y702575D1*
X1467547Y701362D1*
X1468890Y703562D1*
X1470010Y705180D1*
X1471214Y706738D1*
X1472499Y708230D1*
X1473858Y709652D1*
X1475291Y711001D1*
X1476793Y712274D1*
X1478360Y713466D1*
X1479986Y714573D1*
X1481668Y715596D1*
X1483402Y716528D1*
X1485182Y717367D1*
X1487004Y718113D1*
X1488862Y718762D1*
X1490752Y719314D1*
X1492667Y719764D1*
X1494604Y720114D1*
X1496556Y720362D1*
X1498520Y720508D1*
X1500487Y720551D1*
X1502455Y720491D1*
X1504416Y720327D1*
X1506366Y720060D1*
X1508301Y719693D1*
X1510211Y719224D1*
X1512096Y718656D1*
X1513949Y717990D1*
X1515762Y717227D1*
X1517535Y716371D1*
X1519260Y715423D1*
X1520933Y714386D1*
X1522550Y713262D1*
X1524105Y712056D1*
X1525594Y710770D1*
X1527016Y709408D1*
X1528362Y707972D1*
X1529633Y706469D1*
X1530822Y704902D1*
X1531928Y703273D1*
X1532948Y701589D1*
X1533877Y699854D1*
X1534714Y698072D1*
X1535457Y696249D1*
X1536102Y694391D1*
X1536651Y692500D1*
X1537098Y690584D1*
X1537446Y688646D1*
X1537692Y686693D1*
X1537874Y682992D1*
X1537823Y681025D1*
X1537668Y679062D1*
X1537411Y677112D1*
X1537051Y675176D1*
X1536592Y673262D1*
X1536033Y671375D1*
X1535374Y669520D1*
X1534621Y667702D1*
X1533773Y665925D1*
X1532832Y664196D1*
X1531803Y662518D1*
X1530688Y660896D1*
X1529488Y659336D1*
X1528209Y657840D1*
X1526853Y656413D1*
X1525424Y655060D1*
X1523927Y653782D1*
X1522364Y652585D1*
X1520740Y651472D1*
X1519062Y650446D1*
X1517331Y649508D1*
X1515552Y648663D1*
X1513734Y647912D1*
X1511878Y647257D1*
X1509990Y646701D1*
X1508075Y646244D1*
X1506139Y645887D1*
X1504188Y645634D1*
X1502003Y645476D1*
X1476606Y620087D1*
X1475167Y618745D1*
X1473635Y617509D1*
X1472018Y616386D1*
X1470328Y615379D1*
X1468570Y614495D1*
X1466753Y613738D1*
X1464887Y613112D1*
X1462982Y612619D1*
X1461046Y612264D1*
X1459089Y612047D1*
X1455039Y611969D1*
X1350378D1*
X1349182Y610871D1*
X1347651Y609635D1*
X1346034Y608512D1*
X1344344Y607505D1*
X1342585Y606621D1*
X1340768Y605864D1*
X1338903Y605238D1*
X1336997Y604745D1*
X1335062Y604390D1*
X1333105Y604173D1*
X1329055Y604094D1*
X1275906D1*
X1273938Y604164D1*
X1271982Y604374D1*
X1270045Y604722D1*
X1268136Y605205D1*
X1266269Y605824D1*
X1264449Y606573D1*
X1262686Y607450D1*
X1260991Y608449D1*
X1259371Y609567D1*
X1257835Y610795D1*
X1256383Y612136D1*
X1252234Y612575D1*
X1250282Y612835D1*
X1248348Y613197D1*
X1246434Y613659D1*
X1244549Y614222D1*
X1242694Y614882D1*
X1240878Y615639D1*
X1239102Y616490D1*
X1236020Y618266D1*
X1157795Y618268D1*
X1155828Y618337D1*
X1153871Y618547D1*
X1151934Y618895D1*
X1150026Y619379D1*
X1148159Y619997D1*
X1146339Y620747D1*
X1144576Y621623D1*
X1142881Y622622D1*
X1141261Y623740D1*
X1139724Y624969D1*
X1136804Y627778D1*
X1114822Y649761D1*
X1062976Y649764D1*
X1012039Y598827D1*
X1010600Y597486D1*
X1009068Y596249D1*
X1007451Y595126D1*
X1005761Y594119D1*
X1004003Y593235D1*
X1002185Y592478D1*
X1000320Y591852D1*
X998415Y591360D1*
X996479Y591004D1*
X994522Y590787D1*
X990472Y590709D1*
X890079D1*
X888112Y590778D1*
X886155Y590988D1*
X884218Y591336D1*
X882310Y591820D1*
X880442Y592438D1*
X878622Y593188D1*
X876860Y594064D1*
X875164Y595063D1*
X873545Y596181D1*
X872008Y597411D1*
X869088Y600219D1*
X849030Y620277D1*
X846722Y620449D1*
X844770Y620709D1*
X842836Y621071D1*
X840923Y621533D1*
X839037Y622096D1*
X837182Y622756D1*
X835366Y623513D1*
X833591Y624364D1*
X831862Y625307D1*
X830186Y626339D1*
X828567Y627457D1*
X827008Y628659D1*
X825514Y629940D1*
X824089Y631298D1*
X822738Y632728D1*
X821463Y634228D1*
X820269Y635793D1*
X818833Y637950D1*
X694958Y637953D1*
X693218Y636459D1*
X691655Y635262D1*
X690031Y634150D1*
X688353Y633123D1*
X686622Y632185D1*
X684844Y631340D1*
X683025Y630589D1*
X681169Y629934D1*
X679281Y629378D1*
X677366Y628921D1*
X675430Y628564D1*
X673479Y628311D1*
X671517Y628159D1*
X669549Y628110D1*
X667581Y628165D1*
X665619Y628323D1*
X663668Y628583D1*
X661734Y628945D1*
X659820Y629407D1*
X657934Y629970D1*
X656080Y630630D1*
X654264Y631387D1*
X652488Y632238D1*
X650760Y633181D1*
X649084Y634213D1*
X647465Y635331D1*
X645906Y636533D1*
X644412Y637814D1*
X642987Y639172D1*
X641635Y640602D1*
X640361Y642102D1*
X639167Y643667D1*
X638055Y645291D1*
X637031Y646972D1*
X636097Y648705D1*
X635255Y650484D1*
X634505Y652304D1*
X633853Y654161D1*
X633301Y656050D1*
X632846Y657966D1*
X632492Y659902D1*
X632241Y661854D1*
X632093Y663816D1*
X632047Y665785D1*
X632105Y667752D1*
X632265Y669714D1*
X632529Y671664D1*
X632894Y673598D1*
X633360Y675510D1*
X633925Y677396D1*
X634588Y679249D1*
X635348Y681064D1*
X636201Y682839D1*
X637147Y684564D1*
X638181Y686239D1*
X639302Y687857D1*
X640505Y689415D1*
X641790Y690907D1*
X643150Y692329D1*
X644583Y693678D1*
X646084Y694951D1*
X647651Y696143D1*
X649277Y697251D1*
X650959Y698273D1*
X652693Y699205D1*
X654474Y700045D1*
X656295Y700790D1*
X658154Y701440D1*
X659917Y701954D1*
X660453Y705094D1*
X660919Y707007D1*
X661484Y708892D1*
X662147Y710745D1*
X662907Y712560D1*
X663760Y714335D1*
X664706Y716060D1*
X665740Y717735D1*
X666861Y719353D1*
X668064Y720911D1*
X669349Y722403D1*
X670709Y723825D1*
X672142Y725175D1*
X673643Y726448D1*
X675210Y727639D1*
X676836Y728747D1*
X678518Y729769D1*
X680252Y730701D1*
X682033Y731541D1*
X683854Y732286D1*
X685713Y732936D1*
X687602Y733487D1*
X689517Y733937D1*
X691524Y734297D1*
X691949Y736591D1*
X692415Y738503D1*
X692980Y740388D1*
X693643Y742241D1*
X694403Y744056D1*
X695256Y745831D1*
X696202Y747556D1*
X697236Y749231D1*
X698357Y750849D1*
X699560Y752407D1*
X700845Y753899D1*
X702205Y755322D1*
X703638Y756671D1*
X705139Y757944D1*
X706706Y759135D1*
X708332Y760243D1*
X710014Y761265D1*
X711748Y762197D1*
X713529Y763037D1*
X715350Y763782D1*
X717209Y764432D1*
X719098Y764983D1*
X721013Y765433D1*
X722950Y765783D1*
X724903Y766031D1*
X726866Y766177D1*
X728833Y766220D1*
X730802Y766160D1*
X732762Y765996D1*
X734713Y765730D1*
X736647Y765362D1*
X738558Y764894D1*
X740442Y764325D1*
X742295Y763659D1*
X744109Y762896D1*
X745882Y762041D1*
X747606Y761092D1*
X749280Y760055D1*
X750896Y758932D1*
X752451Y757726D1*
X754003Y756381D1*
X893992Y756378D1*
X895638Y756331D1*
X897597Y756146D1*
X899539Y755823D1*
X901453Y755362D1*
X903328Y754766D1*
X905157Y754041D1*
X906930Y753185D1*
X908638Y752207D1*
X910272Y751110D1*
X911824Y749900D1*
X913614Y748260D1*
X950811Y711064D1*
X951496Y711022D1*
X953142Y713798D1*
X954262Y715416D1*
X955466Y716974D1*
X956751Y718466D1*
X958110Y719888D1*
X959543Y721238D1*
X961045Y722510D1*
X962612Y723702D1*
X964238Y724810D1*
X965920Y725832D1*
X967654Y726764D1*
X969434Y727604D1*
X971256Y728349D1*
X973114Y728999D1*
X975004Y729550D1*
X976919Y730000D1*
X978856Y730350D1*
X980808Y730598D1*
X982887Y730747D1*
X993709Y741500D1*
X995224Y742755D1*
X996825Y743899D1*
X998504Y744927D1*
X1000252Y745832D1*
X1002059Y746612D1*
X1003917Y747260D1*
X1005816Y747776D1*
X1007747Y748156D1*
X1009701Y748398D1*
X1012126Y748504D1*
X1147391D1*
X1148958Y751493D1*
X1149992Y753168D1*
X1151113Y754786D1*
X1152316Y756344D1*
X1153702Y757941D1*
X1153701Y846748D1*
X1153749Y848402D1*
X1153538Y851012D1*
X1152986Y852900D1*
X1152531Y854816D1*
X1152177Y856752D1*
X1151927Y858705D1*
X1151778Y860667D1*
X1151732Y862635D1*
X1151790Y864602D1*
X1151950Y866564D1*
X1152214Y868514D1*
X1152579Y870449D1*
X1153045Y872361D1*
X1153610Y874247D1*
X1154273Y876100D1*
X1155033Y877915D1*
X1155886Y879689D1*
X1156832Y881415D1*
X1157866Y883089D1*
X1158987Y884707D1*
X1160190Y886265D1*
X1161475Y887757D1*
X1162835Y889180D1*
X1164268Y890529D1*
X1165769Y891802D1*
X1167336Y892993D1*
X1168962Y894101D1*
X1170644Y895123D1*
X1172378Y896055D1*
X1174159Y896895D1*
X1175980Y897640D1*
X1177839Y898290D1*
X1179728Y898841D1*
X1181643Y899291D1*
X1183421Y899613D1*
X551281Y614824D2*
X547698Y615797D1*
X545844Y616457D1*
X544028Y617214D1*
X542252Y618064D1*
X540524Y619008D1*
X538848Y620039D1*
X537228Y621157D1*
X535669Y622360D1*
X534176Y623640D1*
X532751Y624999D1*
X531399Y626429D1*
X530125Y627929D1*
X528930Y629493D1*
X527819Y631118D1*
X526795Y632799D1*
X525861Y634531D1*
X525018Y636311D1*
X524269Y638131D1*
X523617Y639988D1*
X523064Y641877D1*
X522610Y643793D1*
X522256Y645728D1*
X522005Y647681D1*
X521857Y649643D1*
X521811Y651612D1*
X521869Y653579D1*
X522029Y655541D1*
X522293Y657491D1*
X522657Y659425D1*
X523123Y661337D1*
X523689Y663223D1*
X524352Y665076D1*
X525112Y666891D1*
X525965Y668665D1*
X526911Y670391D1*
X527945Y672066D1*
X529066Y673684D1*
X530269Y675241D1*
X531554Y676734D1*
X532913Y678156D1*
X534346Y679505D1*
X535848Y680778D1*
X537415Y681970D1*
X539041Y683077D1*
X540723Y684100D1*
X542457Y685031D1*
X544238Y685871D1*
X546059Y686617D1*
X547917Y687266D1*
X549807Y687818D1*
X551722Y688268D1*
X553659Y688618D1*
X555612Y688866D1*
X557575Y689012D1*
X559542Y689055D1*
X561510Y688995D1*
X563471Y688831D1*
X565421Y688564D1*
X567356Y688197D1*
X569266Y687728D1*
X571151Y687160D1*
X573004Y686493D1*
X574818Y685731D1*
X576591Y684875D1*
X578315Y683927D1*
X579988Y682890D1*
X581605Y681766D1*
X583160Y680560D1*
X584650Y679274D1*
X586071Y677912D1*
X587417Y676476D1*
X588688Y674972D1*
X589877Y673406D1*
X590983Y671777D1*
X592003Y670093D1*
X592932Y668358D1*
X593769Y666576D1*
X594512Y664753D1*
X595157Y662895D1*
X596037Y659589D1*
X698463Y557168D1*
X728131Y557165D1*
X731433Y559047D1*
X733214Y559887D1*
X735035Y560633D1*
X736894Y561282D1*
X738783Y561833D1*
X740698Y562283D1*
X742635Y562634D1*
X744588Y562882D1*
X746551Y563028D1*
X748518Y563071D1*
X750487Y563010D1*
X752448Y562846D1*
X754398Y562580D1*
X756332Y562213D1*
X758243Y561744D1*
X760127Y561176D1*
X761980Y560509D1*
X763794Y559747D1*
X765567Y558891D1*
X768539Y557169D1*
X1027349Y557165D1*
X1028912Y558115D1*
X1030646Y559047D1*
X1032427Y559887D1*
X1034248Y560633D1*
X1036106Y561282D1*
X1037996Y561833D1*
X1039911Y562283D1*
X1041848Y562634D1*
X1043801Y562882D1*
X1045764Y563028D1*
X1047731Y563071D1*
X1049699Y563010D1*
X1051660Y562846D1*
X1053610Y562580D1*
X1055545Y562213D1*
X1057455Y561744D1*
X1059340Y561176D1*
X1061193Y560509D1*
X1063007Y559747D1*
X1064780Y558891D1*
X1066504Y557942D1*
X1068177Y556906D1*
X1069794Y555782D1*
X1071349Y554576D1*
X1072839Y553290D1*
X1074260Y551928D1*
X1075606Y550492D1*
X1076877Y548988D1*
X1078066Y547421D1*
X1079172Y545793D1*
X1080192Y544109D1*
X1081121Y542374D1*
X1081958Y540592D1*
X1082701Y538769D1*
X1083346Y536911D1*
X1083895Y535020D1*
X1084343Y533104D1*
X1084690Y531165D1*
X1084936Y529213D1*
X1085118Y525512D1*
X1085067Y523545D1*
X1084912Y521581D1*
X1084655Y519631D1*
X1084295Y517696D1*
X1083836Y515782D1*
X1083277Y513895D1*
X1082618Y512039D1*
X1081865Y510222D1*
X1081017Y508445D1*
X1080076Y506715D1*
X1079047Y505038D1*
X1077932Y503416D1*
X1076732Y501856D1*
X1075453Y500360D1*
X1074097Y498933D1*
X1072668Y497580D1*
X1071171Y496302D1*
X1069608Y495105D1*
X1067984Y493992D1*
X1066306Y492966D1*
X1064575Y492028D1*
X1062797Y491182D1*
X1060978Y490432D1*
X1059122Y489777D1*
X1057234Y489220D1*
X1055319Y488764D1*
X1053383Y488407D1*
X1051432Y488154D1*
X1049470Y488001D1*
X1047501Y487953D1*
X1045534Y488008D1*
X1043572Y488165D1*
X1041621Y488425D1*
X1039686Y488787D1*
X1037773Y489249D1*
X1035887Y489812D1*
X1034033Y490472D1*
X1032217Y491230D1*
X1030441Y492080D1*
X1027358Y493857D1*
X768567Y493858D1*
X765362Y492028D1*
X763584Y491182D1*
X761765Y490432D1*
X759909Y489777D1*
X758021Y489220D1*
X756106Y488764D1*
X754171Y488407D1*
X752219Y488154D1*
X750257Y488001D1*
X748289Y487953D1*
X746322Y488008D1*
X744360Y488165D1*
X742408Y488425D1*
X740474Y488787D1*
X738560Y489249D1*
X736675Y489812D1*
X734820Y490472D1*
X733004Y491230D1*
X731228Y492080D1*
X728146Y493857D1*
X685134Y493858D1*
X683167Y493934D1*
X681209Y494131D1*
X679266Y494449D1*
X677348Y494887D1*
X675459Y495445D1*
X673610Y496117D1*
X671806Y496904D1*
X670054Y497802D1*
X668362Y498806D1*
X666735Y499913D1*
X665180Y501121D1*
X662972Y503130D1*
X551285Y614816D1*
X1436790Y557161D2*
X1438361Y558115D1*
X1440094Y559047D1*
X1441875Y559887D1*
X1443697Y560633D1*
X1445555Y561282D1*
X1447445Y561833D1*
X1449360Y562283D1*
X1451297Y562634D1*
X1453249Y562882D1*
X1455213Y563028D1*
X1457180Y563071D1*
X1459148Y563010D1*
X1461109Y562846D1*
X1463059Y562580D1*
X1464993Y562213D1*
X1466904Y561744D1*
X1468789Y561176D1*
X1470642Y560509D1*
X1472455Y559747D1*
X1474228Y558891D1*
X1475953Y557942D1*
X1477626Y556906D1*
X1479243Y555782D1*
X1480798Y554576D1*
X1482287Y553290D1*
X1483709Y551928D1*
X1485055Y550492D1*
X1486325Y548988D1*
X1487514Y547421D1*
X1488621Y545793D1*
X1489640Y544109D1*
X1490570Y542374D1*
X1491407Y540592D1*
X1492150Y538769D1*
X1492795Y536911D1*
X1493344Y535020D1*
X1493791Y533104D1*
X1494139Y531165D1*
X1494385Y529213D1*
X1494567Y525512D1*
X1494516Y523545D1*
X1494361Y521581D1*
X1494104Y519631D1*
X1493744Y517696D1*
X1493285Y515782D1*
X1492726Y513895D1*
X1492067Y512039D1*
X1491314Y510222D1*
X1490466Y508445D1*
X1489525Y506715D1*
X1488496Y505038D1*
X1487381Y503416D1*
X1486181Y501856D1*
X1484902Y500360D1*
X1483546Y498933D1*
X1482117Y497580D1*
X1480619Y496302D1*
X1479056Y495105D1*
X1477433Y493992D1*
X1475755Y492966D1*
X1474024Y492028D1*
X1472245Y491182D1*
X1470427Y490432D1*
X1468571Y489777D1*
X1466682Y489220D1*
X1464768Y488764D1*
X1462832Y488407D1*
X1460881Y488154D1*
X1458919Y488001D1*
X1456950Y487953D1*
X1454983Y488008D1*
X1453021Y488165D1*
X1451070Y488425D1*
X1449135Y488787D1*
X1447222Y489249D1*
X1445336Y489812D1*
X1443482Y490472D1*
X1441665Y491230D1*
X1439890Y492080D1*
X1436807Y493857D1*
X1222087Y493858D1*
X1206287Y478058D1*
X1205324Y474525D1*
X1204665Y472669D1*
X1203912Y470852D1*
X1203064Y469075D1*
X1202123Y467345D1*
X1201094Y465668D1*
X1199979Y464046D1*
X1198780Y462486D1*
X1197500Y460990D1*
X1196144Y459563D1*
X1194715Y458210D1*
X1193218Y456932D1*
X1191655Y455735D1*
X1190031Y454622D1*
X1188353Y453596D1*
X1186622Y452657D1*
X1184844Y451812D1*
X1183025Y451062D1*
X1181169Y450407D1*
X1179281Y449850D1*
X1177366Y449394D1*
X1175430Y449037D1*
X1173479Y448783D1*
X1171517Y448631D1*
X1169549Y448583D1*
X1167581Y448638D1*
X1165619Y448795D1*
X1163668Y449055D1*
X1161734Y449417D1*
X1159820Y449879D1*
X1157934Y450442D1*
X1156080Y451102D1*
X1154264Y451860D1*
X1152488Y452710D1*
X1150760Y453654D1*
X1149084Y454685D1*
X1147465Y455803D1*
X1145906Y457005D1*
X1144412Y458286D1*
X1142987Y459644D1*
X1141635Y461075D1*
X1140361Y462575D1*
X1139167Y464139D1*
X1138055Y465764D1*
X1137031Y467445D1*
X1136097Y469177D1*
X1135255Y470957D1*
X1134505Y472777D1*
X1133853Y474634D1*
X1133301Y476522D1*
X1132846Y478438D1*
X1132492Y480374D1*
X1132241Y482327D1*
X1132093Y484289D1*
X1132047Y486257D1*
X1132105Y488224D1*
X1132265Y490186D1*
X1132529Y492136D1*
X1132894Y494071D1*
X1133360Y495983D1*
X1133925Y497869D1*
X1134588Y499722D1*
X1135348Y501537D1*
X1136201Y503311D1*
X1137147Y505037D1*
X1138181Y506711D1*
X1139302Y508329D1*
X1140505Y509887D1*
X1141790Y511379D1*
X1143150Y512802D1*
X1144583Y514151D1*
X1146084Y515424D1*
X1147651Y516615D1*
X1149277Y517723D1*
X1150959Y518745D1*
X1152693Y519677D1*
X1154474Y520517D1*
X1156295Y521262D1*
X1158154Y521912D1*
X1161503Y522807D1*
X1186594Y547894D1*
X1188028Y549241D1*
X1189543Y550499D1*
X1191134Y551657D1*
X1192794Y552717D1*
X1194516Y553669D1*
X1196293Y554513D1*
X1198121Y555245D1*
X1199990Y555862D1*
X1201892Y556362D1*
X1203824Y556743D1*
X1205774Y557003D1*
X1209000Y557165D1*
X1436793D1*
X559917Y1615159D2*
X560748Y1613157D1*
X561252Y1611055D1*
X565101Y1586749D1*
X559917Y1508860D2*
X560748Y1506858D1*
X561252Y1504756D1*
X565101Y1480450D1*
D18*
X472756Y1481417D3*
Y1581417D3*
X1693228Y1481417D3*
Y1581417D3*
X472756Y1181417D3*
Y981417D3*
Y1081417D3*
Y1281417D3*
X1693228Y1181417D3*
Y981417D3*
Y1081417D3*
Y1281417D3*
X472756Y781417D3*
Y881417D3*
X1693228Y781417D3*
Y881417D3*
D21*
X1082992Y1701102D3*
X1309370Y1346772D3*
Y1523937D3*
X1082992Y992441D3*
X1309370Y1169606D3*
X1240472Y1031811D3*
Y1661732D3*
X925512D3*
X856614Y1523937D3*
Y1346772D3*
Y1169606D3*
X925512Y1031811D3*
D22*
X520000Y1842835D3*
X1645984D3*
X520000Y520000D3*
X1645984D3*
D24*
X1047559Y1848522D3*
X1122362D3*
X1084961Y1757971D3*
X1252283Y1765845D3*
X1327087D3*
X1289685Y1675294D3*
X834961Y1765845D3*
X909764D3*
X872362Y1675294D3*
D26*
X1458759Y1559370D3*
Y1484567D3*
X1368207Y1521969D3*
X707226Y1488504D3*
Y1563307D3*
X797777Y1525906D3*
X1458759Y1386142D3*
Y1311339D3*
X1368207Y1348740D3*
X707226Y1311339D3*
Y1386142D3*
X797777Y1348740D3*
X1458759Y1212913D3*
Y1138110D3*
X1368207Y1175512D3*
X707226Y1134173D3*
Y1208976D3*
X797777Y1171575D3*
X778092Y992441D3*
Y1067244D3*
X868643Y1029843D3*
M02*
